<svg version="1.1" xmlns="http://www.w3.org/2000/svg" viewBox="0 0 1066.6140429919037 1097.1621349384905" width="1066.6140429919037" height="1097.1621349384905">
  <!-- svg-source:excalidraw -->

  <defs>
    <style class="style-fonts">
      @font-face {
        font-family: "Virgil";
        src: url("https://excalidraw.com/Virgil.woff2");
      }
      @font-face {
        font-family: "Cascadia";
        src: url("https://excalidraw.com/Cascadia.woff2");
      }
    </style>

  </defs>
  <rect x="0" y="0" width="1066.6140429919037" height="1097.1621349384905" fill="#050505"></rect><g stroke-linecap="round" transform="translate(49.90272282391288 10) rotate(0 46.64477881134394 26.545809079626565)"><path d="M13.27 0 M13.27 0 C32.34 0, 51.4 0, 80.02 0 M13.27 0 C34.66 0, 56.04 0, 80.02 0 M80.02 0 C88.87 0, 93.29 4.42, 93.29 13.27 M80.02 0 C88.87 0, 93.29 4.42, 93.29 13.27 M93.29 13.27 C93.29 21.7, 93.29 30.12, 93.29 39.82 M93.29 13.27 C93.29 23.38, 93.29 33.48, 93.29 39.82 M93.29 39.82 C93.29 48.67, 88.87 53.09, 80.02 53.09 M93.29 39.82 C93.29 48.67, 88.87 53.09, 80.02 53.09 M80.02 53.09 C59.23 53.09, 38.44 53.09, 13.27 53.09 M80.02 53.09 C56.46 53.09, 32.89 53.09, 13.27 53.09 M13.27 53.09 C4.42 53.09, 0 48.67, 0 39.82 M13.27 53.09 C4.42 53.09, 0 48.67, 0 39.82 M0 39.82 C0 31.86, 0 23.9, 0 13.27 M0 39.82 C0 29.78, 0 19.75, 0 13.27 M0 13.27 C0 4.42, 4.42 0, 13.27 0 M0 13.27 C0 4.42, 4.42 0, 13.27 0" stroke="#2f9e44" stroke-width="1" fill="none"></path></g><g transform="translate(58.638634752932376 21.376775319839965) rotate(0 37.908866882324446 15.169033759786629)"><text x="37.90886688232422" y="0" font-family="Virgil, Segoe UI Emoji" font-size="12.135227007829291px" fill="#2f9e44" text-anchor="middle" style="white-space: pre;" direction="ltr" dominant-baseline="text-before-edge">JavaScript </text><text x="37.90886688232422" y="15.169033759786615" font-family="Virgil, Segoe UI Emoji" font-size="12.135227007829291px" fill="#2f9e44" text-anchor="middle" style="white-space: pre;" direction="ltr" dominant-baseline="text-before-edge">Function Call</text></g><g stroke-linecap="round" transform="translate(489.23549853375107 138.1983892210751) rotate(0 46.64477881134371 28)"><path d="M14 0 M14 0 C36.64 0, 59.28 0, 79.29 0 M14 0 C31.32 0, 48.64 0, 79.29 0 M79.29 0 C88.62 0, 93.29 4.67, 93.29 14 M79.29 0 C88.62 0, 93.29 4.67, 93.29 14 M93.29 14 C93.29 20.56, 93.29 27.12, 93.29 42 M93.29 14 C93.29 22.38, 93.29 30.76, 93.29 42 M93.29 42 C93.29 51.33, 88.62 56, 79.29 56 M93.29 42 C93.29 51.33, 88.62 56, 79.29 56 M79.29 56 C55.77 56, 32.26 56, 14 56 M79.29 56 C59.19 56, 39.08 56, 14 56 M14 56 C4.67 56, 0 51.33, 0 42 M14 56 C4.67 56, 0 51.33, 0 42 M0 42 C0 34.4, 0 26.8, 0 14 M0 42 C0 31.56, 0 21.12, 0 14 M0 14 C0 4.67, 4.67 0, 14 0 M0 14 C0 4.67, 4.67 0, 14 0" stroke="#ffffff" stroke-width="1" fill="none"></path></g><g transform="translate(500.5600945448018 143.44483858139517) rotate(0 35.32018280029297 22.75355063967993)"><text x="35.32018280029297" y="0" font-family="Virgil, Segoe UI Emoji" font-size="12.135227007829291px" fill="#ffffff" text-anchor="middle" style="white-space: pre;" direction="ltr" dominant-baseline="text-before-edge">Invoke </text><text x="35.32018280029297" y="15.169033759786615" font-family="Virgil, Segoe UI Emoji" font-size="12.135227007829291px" fill="#ffffff" text-anchor="middle" style="white-space: pre;" direction="ltr" dominant-baseline="text-before-edge">through </text><text x="35.32018280029297" y="30.33806751957323" font-family="Virgil, Segoe UI Emoji" font-size="12.135227007829291px" fill="#ffffff" text-anchor="middle" style="white-space: pre;" direction="ltr" dominant-baseline="text-before-edge">binding layer</text></g><g stroke-linecap="round" transform="translate(47.16232316598598 105.03246270017769) rotate(0 47.74882304214748 47)"><path d="M60 12 M60 12 C65.02 17.13, 70.05 22.26, 83.5 36 M60 12 C66.59 18.73, 73.18 25.46, 83.5 36 M83.5 36 C95.5 48, 95.5 48, 83.5 60 M83.5 36 C95.5 48, 95.5 48, 83.5 60 M83.5 60 C77.5 65.61, 71.5 71.23, 60 82 M83.5 60 C77.31 65.79, 71.13 71.58, 60 82 M60 82 C48 94, 48 94, 36 82 M60 82 C48 94, 48 94, 36 82 M36 82 C29.33 75.89, 22.67 69.78, 12 60 M36 82 C30.98 77.4, 25.96 72.79, 12 60 M12 60 C0 48, 0 48, 12 36 M12 60 C0 48, 0 48, 12 36 M12 36 C18.55 29.45, 25.1 22.9, 36 12 M12 36 C18.47 29.53, 24.94 23.06, 36 12 M36 12 C48 0, 48 0, 60 12 M36 12 C48 0, 48 0, 60 12" stroke="#f08c00" stroke-width="1" fill="none"></path></g><g transform="translate(76.0945883857903 133.74743057889856) rotate(0 18.94214630126976 18.28503212127913)"><text x="18.94214630126953" y="0" font-family="Virgil, Segoe UI Emoji" font-size="5.851210278809324px" fill="#f08c00" text-anchor="middle" style="white-space: pre;" direction="ltr" dominant-baseline="text-before-edge">Is the </text><text x="18.94214630126953" y="7.314012848511656" font-family="Virgil, Segoe UI Emoji" font-size="5.851210278809324px" fill="#f08c00" text-anchor="middle" style="white-space: pre;" direction="ltr" dominant-baseline="text-before-edge">function part</text><text x="18.94214630126953" y="14.628025697023311" font-family="Virgil, Segoe UI Emoji" font-size="5.851210278809324px" fill="#f08c00" text-anchor="middle" style="white-space: pre;" direction="ltr" dominant-baseline="text-before-edge">of the </text><text x="18.94214630126953" y="21.942038545534967" font-family="Virgil, Segoe UI Emoji" font-size="5.851210278809324px" fill="#f08c00" text-anchor="middle" style="white-space: pre;" direction="ltr" dominant-baseline="text-before-edge">native </text><text x="18.94214630126953" y="29.256051394046622" font-family="Virgil, Segoe UI Emoji" font-size="5.851210278809324px" fill="#f08c00" text-anchor="middle" style="white-space: pre;" direction="ltr" dominant-baseline="text-before-edge">module?</text></g><g stroke-linecap="round" transform="translate(482.6249974697653 240.97678856867412) rotate(0 48.685719749165855 46)"><path d="M61.25 11.75 M61.25 11.75 C66.67 17.09, 72.1 22.43, 85.12 35.25 M61.25 11.75 C68.36 18.75, 75.47 25.75, 85.12 35.25 M85.12 35.25 C97.37 47, 97.37 47, 85.12 58.75 M85.12 35.25 C97.37 47, 97.37 47, 85.12 58.75 M85.12 58.75 C75.93 67.03, 66.74 75.3, 61.25 80.25 M85.12 58.75 C76.91 66.14, 68.7 73.54, 61.25 80.25 M61.25 80.25 C49 92, 49 92, 36.75 80.25 M61.25 80.25 C49 92, 49 92, 36.75 80.25 M36.75 80.25 C31.67 75.79, 26.58 71.33, 12.25 58.75 M36.75 80.25 C28.29 72.83, 19.84 65.41, 12.25 58.75 M12.25 58.75 C0 47, 0 47, 12.25 35.25 M12.25 58.75 C0 47, 0 47, 12.25 35.25 M12.25 35.25 C20.92 26.93, 29.6 18.61, 36.75 11.75 M12.25 35.25 C19.04 28.74, 25.83 22.22, 36.75 11.75 M36.75 11.75 C49 0, 49 0, 61.25 11.75 M36.75 11.75 C49 0, 49 0, 61.25 11.75" stroke="#f08c00" stroke-width="1" fill="none"></path></g><g transform="translate(513.6698608233523 269.12697693230814) rotate(0 17.797996520996094 17.849811636365985)"><text x="17.797996520996094" y="0" font-family="Virgil, Segoe UI Emoji" font-size="7.139924654546393px" fill="#f08c00" text-anchor="middle" style="white-space: pre;" direction="ltr" dominant-baseline="text-before-edge">Is the </text><text x="17.797996520996094" y="8.92490581818299" font-family="Virgil, Segoe UI Emoji" font-size="7.139924654546393px" fill="#f08c00" text-anchor="middle" style="white-space: pre;" direction="ltr" dominant-baseline="text-before-edge">operation </text><text x="17.797996520996094" y="17.84981163636598" font-family="Virgil, Segoe UI Emoji" font-size="7.139924654546393px" fill="#f08c00" text-anchor="middle" style="white-space: pre;" direction="ltr" dominant-baseline="text-before-edge">CPU-</text><text x="17.797996520996094" y="26.77471745454897" font-family="Virgil, Segoe UI Emoji" font-size="7.139924654546393px" fill="#f08c00" text-anchor="middle" style="white-space: pre;" direction="ltr" dominant-baseline="text-before-edge">bound?</text></g><g stroke-linecap="round" transform="translate(40.52009708742071 258.9353332778087) rotate(0 51.57471478327443 34.130325959519894)"><path d="M17.07 0 M17.07 0 C41.41 0, 65.75 0, 86.08 0 M17.07 0 C42.45 0, 67.83 0, 86.08 0 M86.08 0 C97.46 0, 103.15 5.69, 103.15 17.07 M86.08 0 C97.46 0, 103.15 5.69, 103.15 17.07 M103.15 17.07 C103.15 27.73, 103.15 38.39, 103.15 51.2 M103.15 17.07 C103.15 27.16, 103.15 37.25, 103.15 51.2 M103.15 51.2 C103.15 62.57, 97.46 68.26, 86.08 68.26 M103.15 51.2 C103.15 62.57, 97.46 68.26, 86.08 68.26 M86.08 68.26 C67.39 68.26, 48.7 68.26, 17.07 68.26 M86.08 68.26 C65.85 68.26, 45.61 68.26, 17.07 68.26 M17.07 68.26 C5.69 68.26, 0 62.57, 0 51.2 M17.07 68.26 C5.69 68.26, 0 62.57, 0 51.2 M0 51.2 C0 39.06, 0 26.92, 0 17.07 M0 51.2 C0 43.67, 0 36.15, 0 17.07 M0 17.07 C0 5.69, 5.69 0, 17.07 0 M0 17.07 C0 5.69, 5.69 0, 17.07 0" stroke="#ffffff" stroke-width="1" fill="none"></path></g><g transform="translate(45.8014921685467 277.896625477542) rotate(0 46.29331970214844 15.1690337597866)"><text x="46.29331970214844" y="0" font-family="Virgil, Segoe UI Emoji" font-size="12.135227007829291px" fill="#ffffff" text-anchor="middle" style="white-space: pre;" direction="ltr" dominant-baseline="text-before-edge">Invoke through</text><text x="46.29331970214844" y="15.169033759786615" font-family="Virgil, Segoe UI Emoji" font-size="12.135227007829291px" fill="#ffffff" text-anchor="middle" style="white-space: pre;" direction="ltr" dominant-baseline="text-before-edge">Node.js Runtime</text></g><g stroke-linecap="round" transform="translate(29.634070603040072 375.00642999475315) rotate(0 59.31955151006696 56)"><path d="M75 14.25 M75 14.25 C82.8 22.01, 90.6 29.77, 103.64 42.75 M75 14.25 C85.77 24.97, 96.55 35.69, 103.64 42.75 M103.64 42.75 C118.64 57, 118.64 57, 103.64 71.25 M103.64 42.75 C118.64 57, 118.64 57, 103.64 71.25 M103.64 71.25 C92.56 81.5, 81.49 91.74, 75 97.75 M103.64 71.25 C92.69 81.38, 81.74 91.51, 75 97.75 M75 97.75 C60 112, 60 112, 45 97.75 M75 97.75 C60 112, 60 112, 45 97.75 M45 97.75 C37.79 91.38, 30.59 85.02, 15 71.25 M45 97.75 C34.93 88.86, 24.87 79.97, 15 71.25 M15 71.25 C0 57, 0 57, 15 42.75 M15 71.25 C0 57, 0 57, 15 42.75 M15 42.75 C25.42 32.85, 35.85 22.95, 45 14.25 M15 42.75 C26.06 32.24, 37.12 21.73, 45 14.25 M45 14.25 C60 0, 60 0, 75 14.25 M45 14.25 C60 0, 60 0, 75 14.25" stroke="#f08c00" stroke-width="1" fill="none"></path></g><g transform="translate(66.15868400455793 408.50257538404094) rotate(0 22.635162353515625 22.50385461071221)"><text x="22.635162353515625" y="0" font-family="Virgil, Segoe UI Emoji" font-size="9.001541844284892px" fill="#f08c00" text-anchor="middle" style="white-space: pre;" direction="ltr" dominant-baseline="text-before-edge">Does the </text><text x="22.635162353515625" y="11.251927305356116" font-family="Virgil, Segoe UI Emoji" font-size="9.001541844284892px" fill="#f08c00" text-anchor="middle" style="white-space: pre;" direction="ltr" dominant-baseline="text-before-edge">task </text><text x="22.635162353515625" y="22.50385461071223" font-family="Virgil, Segoe UI Emoji" font-size="9.001541844284892px" fill="#f08c00" text-anchor="middle" style="white-space: pre;" direction="ltr" dominant-baseline="text-before-edge">involve </text><text x="22.635162353515625" y="33.755781916068344" font-family="Virgil, Segoe UI Emoji" font-size="9.001541844284892px" fill="#f08c00" text-anchor="middle" style="white-space: pre;" direction="ltr" dominant-baseline="text-before-edge">I/O?</text></g><g stroke-linecap="round" transform="translate(222.87181118916988 416.3644189042152) rotate(0 46.64477881134371 26.545809079626565)"><path d="M13.27 0 M13.27 0 C37.15 0, 61.02 0, 80.02 0 M13.27 0 C34.68 0, 56.09 0, 80.02 0 M80.02 0 C88.87 0, 93.29 4.42, 93.29 13.27 M80.02 0 C88.87 0, 93.29 4.42, 93.29 13.27 M93.29 13.27 C93.29 21.47, 93.29 29.66, 93.29 39.82 M93.29 13.27 C93.29 23.02, 93.29 32.77, 93.29 39.82 M93.29 39.82 C93.29 48.67, 88.87 53.09, 80.02 53.09 M93.29 39.82 C93.29 48.67, 88.87 53.09, 80.02 53.09 M80.02 53.09 C59.49 53.09, 38.97 53.09, 13.27 53.09 M80.02 53.09 C59.29 53.09, 38.57 53.09, 13.27 53.09 M13.27 53.09 C4.42 53.09, 0 48.67, 0 39.82 M13.27 53.09 C4.42 53.09, 0 48.67, 0 39.82 M0 39.82 C0 29.61, 0 19.4, 0 13.27 M0 39.82 C0 34.21, 0 28.6, 0 13.27 M0 13.27 C0 4.42, 4.42 0, 13.27 0 M0 13.27 C0 4.42, 4.42 0, 13.27 0" stroke="#ffffff" stroke-width="1" fill="none"></path></g><g transform="translate(228.9644659770761 427.7411942240551) rotate(0 40.5521240234375 15.1690337597866)"><text x="40.5521240234375" y="0" font-family="Virgil, Segoe UI Emoji" font-size="12.135227007829291px" fill="#ffffff" text-anchor="middle" style="white-space: pre;" direction="ltr" dominant-baseline="text-before-edge">Add to Event</text><text x="40.5521240234375" y="15.169033759786615" font-family="Virgil, Segoe UI Emoji" font-size="12.135227007829291px" fill="#ffffff" text-anchor="middle" style="white-space: pre;" direction="ltr" dominant-baseline="text-before-edge">Loop Queue</text></g><g stroke-linecap="round" transform="translate(42.76564644449445 561.6644518179025) rotate(0 46.64477881134394 28)"><path d="M14 0 M14 0 C27.27 0, 40.54 0, 79.29 0 M14 0 C33.18 0, 52.37 0, 79.29 0 M79.29 0 C88.62 0, 93.29 4.67, 93.29 14 M79.29 0 C88.62 0, 93.29 4.67, 93.29 14 M93.29 14 C93.29 20.83, 93.29 27.66, 93.29 42 M93.29 14 C93.29 21.43, 93.29 28.86, 93.29 42 M93.29 42 C93.29 51.33, 88.62 56, 79.29 56 M93.29 42 C93.29 51.33, 88.62 56, 79.29 56 M79.29 56 C63.87 56, 48.44 56, 14 56 M79.29 56 C61.74 56, 44.18 56, 14 56 M14 56 C4.67 56, 0 51.33, 0 42 M14 56 C4.67 56, 0 51.33, 0 42 M0 42 C0 33.47, 0 24.94, 0 14 M0 42 C0 34.42, 0 26.84, 0 14 M0 14 C0 4.67, 4.67 0, 14 0 M0 14 C0 4.67, 4.67 0, 14 0" stroke="#ffffff" stroke-width="1" fill="none"></path></g><g transform="translate(47.77917678171707 566.9109011782226) rotate(0 41.63124847412132 22.75355063967993)"><text x="41.631248474121094" y="0" font-family="Virgil, Segoe UI Emoji" font-size="12.135227007829291px" fill="#ffffff" text-anchor="middle" style="white-space: pre;" direction="ltr" dominant-baseline="text-before-edge">Execute </text><text x="41.631248474121094" y="15.169033759786615" font-family="Virgil, Segoe UI Emoji" font-size="12.135227007829291px" fill="#ffffff" text-anchor="middle" style="white-space: pre;" direction="ltr" dominant-baseline="text-before-edge">directly on V8</text><text x="41.631248474121094" y="30.33806751957323" font-family="Virgil, Segoe UI Emoji" font-size="12.135227007829291px" fill="#ffffff" text-anchor="middle" style="white-space: pre;" direction="ltr" dominant-baseline="text-before-edge">Engine.</text></g><g stroke-linecap="round" transform="translate(117.31600969596866 675.4117755173681) rotate(0 49.35819877814356 47.45980651744554)"><path d="M62.5 12 M62.5 12 C69.91 19.5, 77.32 26.99, 86.22 36 M62.5 12 C69.53 19.11, 76.56 26.23, 86.22 36 M86.22 36 C98.72 48, 98.72 48, 86.22 60 M86.22 36 C98.72 48, 98.72 48, 86.22 60 M86.22 60 C78.35 67.6, 70.49 75.2, 62.5 82.92 M86.22 60 C77.14 68.77, 68.06 77.55, 62.5 82.92 M62.5 82.92 C50 94.92, 50 94.92, 37.5 82.92 M62.5 82.92 C50 94.92, 50 94.92, 37.5 82.92 M37.5 82.92 C31.64 77.54, 25.77 72.17, 12.5 60 M37.5 82.92 C28 74.21, 18.51 65.51, 12.5 60 M12.5 60 C0 48, 0 48, 12.5 36 M12.5 60 C0 48, 0 48, 12.5 36 M12.5 36 C19.06 29.71, 25.61 23.41, 37.5 12 M12.5 36 C18.87 29.88, 25.25 23.76, 37.5 12 M37.5 12 C50 0, 50 0, 62.5 12 M37.5 12 C50 0, 50 0, 62.5 12" stroke="#f08c00" stroke-width="1" fill="none"></path></g><g transform="translate(147.79451704402481 712.6978332607855) rotate(0 18.700592041015625 9.943845515305384)"><text x="18.700592041015625" y="0" font-family="Virgil, Segoe UI Emoji" font-size="7.9550764122442885px" fill="#f08c00" text-anchor="middle" style="white-space: pre;" direction="ltr" dominant-baseline="text-before-edge">Operation</text><text x="18.700592041015625" y="9.94384551530536" font-family="Virgil, Segoe UI Emoji" font-size="7.9550764122442885px" fill="#f08c00" text-anchor="middle" style="white-space: pre;" direction="ltr" dominant-baseline="text-before-edge">Complete?</text></g><g stroke-linecap="round" transform="translate(277.4491306382547 695.1920609539334) rotate(0 46.64477881134371 27.999999999999943)"><path d="M14 0 M14 0 C32.47 0, 50.95 0, 79.29 0 M14 0 C28.18 0, 42.35 0, 79.29 0 M79.29 0 C88.62 0, 93.29 4.67, 93.29 14 M79.29 0 C88.62 0, 93.29 4.67, 93.29 14 M93.29 14 C93.29 19.81, 93.29 25.61, 93.29 42 M93.29 14 C93.29 22.02, 93.29 30.04, 93.29 42 M93.29 42 C93.29 51.33, 88.62 56, 79.29 56 M93.29 42 C93.29 51.33, 88.62 56, 79.29 56 M79.29 56 C64.01 56, 48.73 56, 14 56 M79.29 56 C64.96 56, 50.63 56, 14 56 M14 56 C4.67 56, 0 51.33, 0 42 M14 56 C4.67 56, 0 51.33, 0 42 M0 42 C0 35.35, 0 28.69, 0 14 M0 42 C0 34.92, 0 27.84, 0 14 M0 14 C0 4.67, 4.67 0, 14 0 M0 14 C0 4.67, 4.67 0, 14 0" stroke="#ff8787" stroke-width="1" fill="none"></path></g><g transform="translate(283.6509162855359 700.4385103142534) rotate(0 40.4429931640625 22.75355063967993)"><text x="40.4429931640625" y="0" font-family="Virgil, Segoe UI Emoji" font-size="12.135227007829291px" fill="#ff8787" text-anchor="middle" style="white-space: pre;" direction="ltr" dominant-baseline="text-before-edge">Return result</text><text x="40.4429931640625" y="15.169033759786615" font-family="Virgil, Segoe UI Emoji" font-size="12.135227007829291px" fill="#ff8787" text-anchor="middle" style="white-space: pre;" direction="ltr" dominant-baseline="text-before-edge">to </text><text x="40.4429931640625" y="30.33806751957323" font-family="Virgil, Segoe UI Emoji" font-size="12.135227007829291px" fill="#ff8787" text-anchor="middle" style="white-space: pre;" direction="ltr" dominant-baseline="text-before-edge">JavaScript</text></g><g stroke-linecap="round" transform="translate(222.92278930979364 983.1621349384906) rotate(0 63.73911630582052 52)"><path d="M80 13.25 M80 13.25 C88.43 20.35, 96.86 27.44, 111.48 39.75 M80 13.25 C91.02 22.53, 102.05 31.81, 111.48 39.75 M111.48 39.75 C127.48 53, 127.48 53, 111.48 66.25 M111.48 39.75 C127.48 53, 127.48 53, 111.48 66.25 M111.48 66.25 C103.7 72.31, 95.91 78.37, 80 90.75 M111.48 66.25 C102.19 73.48, 92.91 80.7, 80 90.75 M80 90.75 C64 104, 64 104, 48 90.75 M80 90.75 C64 104, 64 104, 48 90.75 M48 90.75 C41.22 85.56, 34.44 80.37, 16 66.25 M48 90.75 C40.86 85.29, 33.73 79.82, 16 66.25 M16 66.25 C0 53, 0 53, 16 39.75 M16 66.25 C0 53, 0 53, 16 39.75 M16 39.75 C26.77 30.83, 37.54 21.91, 48 13.25 M16 39.75 C27.02 30.63, 38.03 21.51, 48 13.25 M48 13.25 C64 0, 64 0, 80 13.25 M48 13.25 C64 0, 64 0, 80 13.25" stroke="#f08c00" stroke-width="1" fill="none"></path></g><g transform="translate(260.7854886370201 1014.374940526931) rotate(0 26.006858825683594 20.787194411559426)"><text x="26.006858825683594" y="0" font-family="Virgil, Segoe UI Emoji" font-size="8.314877764623779px" fill="#f08c00" text-anchor="middle" style="white-space: pre;" direction="ltr" dominant-baseline="text-before-edge">Did it </text><text x="26.006858825683594" y="10.393597205779724" font-family="Virgil, Segoe UI Emoji" font-size="8.314877764623779px" fill="#f08c00" text-anchor="middle" style="white-space: pre;" direction="ltr" dominant-baseline="text-before-edge">produce the </text><text x="26.006858825683594" y="20.787194411559447" font-family="Virgil, Segoe UI Emoji" font-size="8.314877764623779px" fill="#f08c00" text-anchor="middle" style="white-space: pre;" direction="ltr" dominant-baseline="text-before-edge">expected </text><text x="26.006858825683594" y="31.18079161733917" font-family="Virgil, Segoe UI Emoji" font-size="8.314877764623779px" fill="#f08c00" text-anchor="middle" style="white-space: pre;" direction="ltr" dominant-baseline="text-before-edge">result?</text></g><g stroke-linecap="round" transform="translate(397.0600614799837 1008.7459292002842) rotate(0 46.64477881134371 26.545809079626565)"><path d="M13.27 0 M13.27 0 C27.71 0, 42.15 0, 80.02 0 M13.27 0 C26.92 0, 40.57 0, 80.02 0 M80.02 0 C88.87 0, 93.29 4.42, 93.29 13.27 M80.02 0 C88.87 0, 93.29 4.42, 93.29 13.27 M93.29 13.27 C93.29 20.53, 93.29 27.79, 93.29 39.82 M93.29 13.27 C93.29 21.1, 93.29 28.93, 93.29 39.82 M93.29 39.82 C93.29 48.67, 88.87 53.09, 80.02 53.09 M93.29 39.82 C93.29 48.67, 88.87 53.09, 80.02 53.09 M80.02 53.09 C54.86 53.09, 29.7 53.09, 13.27 53.09 M80.02 53.09 C58.5 53.09, 36.97 53.09, 13.27 53.09 M13.27 53.09 C4.42 53.09, 0 48.67, 0 39.82 M13.27 53.09 C4.42 53.09, 0 48.67, 0 39.82 M0 39.82 C0 34.4, 0 28.98, 0 13.27 M0 39.82 C0 31.76, 0 23.7, 0 13.27 M0 13.27 C0 4.42, 4.42 0, 13.27 0 M0 13.27 C0 4.42, 4.42 0, 13.27 0" stroke="#2f9e44" stroke-width="1" fill="none"></path></g><g transform="translate(408.45741139728443 1027.7072214000173) rotate(0 35.24742889404297 7.584516879893272)"><text x="35.24742889404297" y="0" font-family="Virgil, Segoe UI Emoji" font-size="12.135227007829291px" fill="#2f9e44" text-anchor="middle" style="white-space: pre;" direction="ltr" dominant-baseline="text-before-edge">You're done!</text></g><g stroke-linecap="round" transform="translate(484.4709825229925 369.8513586520073) rotate(0 49.09062782390674 23.30251320755059)"><path d="M11.65 0 M11.65 0 C29.78 0, 47.91 0, 86.53 0 M11.65 0 C28.2 0, 44.76 0, 86.53 0 M86.53 0 C94.3 0, 98.18 3.88, 98.18 11.65 M86.53 0 C94.3 0, 98.18 3.88, 98.18 11.65 M98.18 11.65 C98.18 19.3, 98.18 26.94, 98.18 34.95 M98.18 11.65 C98.18 17.25, 98.18 22.85, 98.18 34.95 M98.18 34.95 C98.18 42.72, 94.3 46.61, 86.53 46.61 M98.18 34.95 C98.18 42.72, 94.3 46.61, 86.53 46.61 M86.53 46.61 C63.64 46.61, 40.75 46.61, 11.65 46.61 M86.53 46.61 C70.3 46.61, 54.06 46.61, 11.65 46.61 M11.65 46.61 C3.88 46.61, 0 42.72, 0 34.95 M11.65 46.61 C3.88 46.61, 0 42.72, 0 34.95 M0 34.95 C0 28.8, 0 22.64, 0 11.65 M0 34.95 C0 27.77, 0 20.58, 0 11.65 M0 11.65 C0 3.88, 3.88 0, 11.65 0 M0 11.65 C0 3.88, 3.88 0, 11.65 0" stroke="#ffffff" stroke-width="1" fill="none"></path></g><g transform="translate(493.06187737570644 380.91106932335254) rotate(0 40.499732971191406 12.242802536205375)"><text x="40.499732971191406" y="0" font-family="Virgil, Segoe UI Emoji" font-size="9.794242028964305px" fill="#ffffff" text-anchor="middle" style="white-space: pre;" direction="ltr" dominant-baseline="text-before-edge">Delegate to </text><text x="40.499732971191406" y="12.242802536205382" font-family="Virgil, Segoe UI Emoji" font-size="9.794242028964305px" fill="#ffffff" text-anchor="middle" style="white-space: pre;" direction="ltr" dominant-baseline="text-before-edge">System-level API</text></g><g stroke-linecap="round" transform="translate(487.0772881469434 436.79723677310574) rotate(0 45.13328450882864 43.7420280063904)"><path d="M57.5 11 M57.5 11 C63.83 17.55, 70.17 24.1, 78.77 33 M57.5 11 C65.79 19.57, 74.07 28.15, 78.77 33 M78.77 33 C90.27 44, 90.27 44, 78.77 55 M78.77 33 C90.27 44, 90.27 44, 78.77 55 M78.77 55 C74.32 59.49, 69.88 63.98, 57.5 76.48 M78.77 55 C71.3 62.54, 63.83 70.09, 57.5 76.48 M57.5 76.48 C46 87.48, 46 87.48, 34.5 76.48 M57.5 76.48 C46 87.48, 46 87.48, 34.5 76.48 M34.5 76.48 C25.53 68.1, 16.55 59.72, 11.5 55 M34.5 76.48 C28.97 71.32, 23.44 66.16, 11.5 55 M11.5 55 C0 44, 0 44, 11.5 33 M11.5 55 C0 44, 0 44, 11.5 33 M11.5 33 C16.49 28.23, 21.48 23.45, 34.5 11 M11.5 33 C20.11 24.77, 28.71 16.54, 34.5 11 M34.5 11 C46 0, 46 0, 57.5 11 M34.5 11 C46 0, 46 0, 57.5 11" stroke="#f08c00" stroke-width="1" fill="none"></path></g><g transform="translate(515.1057986874907 472.4093862417518) rotate(0 17.038131713867188 8.258864534549161)"><text x="17.038131713867188" y="0" font-family="Virgil, Segoe UI Emoji" font-size="6.6070916276393294px" fill="#f08c00" text-anchor="middle" style="white-space: pre;" direction="ltr" dominant-baseline="text-before-edge">Operation </text><text x="17.038131713867188" y="8.258864534549161" font-family="Virgil, Segoe UI Emoji" font-size="6.6070916276393294px" fill="#f08c00" text-anchor="middle" style="white-space: pre;" direction="ltr" dominant-baseline="text-before-edge">complete?</text></g><g stroke-linecap="round"><g transform="translate(98.98229114262904 64.75590809034418) rotate(0 -0.29291414964063733 18.62137675896605)"><path d="M0 0 C-0.1 6.21, -0.49 31.04, -0.59 37.24 M0 0 C-0.1 6.21, -0.49 31.04, -0.59 37.24" stroke="#ffffff" stroke-width="1" fill="none"></path></g></g><mask></mask><g stroke-linecap="round" transform="translate(112.94511963248942 804.545883430923) rotate(0 53.419405358800304 51.364812845000415)"><path d="M67.5 13 M67.5 13 C76.2 21.75, 84.89 30.5, 93.34 39 M67.5 13 C75.01 20.56, 82.52 28.12, 93.34 39 M93.34 39 C106.84 52, 106.84 52, 93.34 65 M93.34 39 C106.84 52, 106.84 52, 93.34 65 M93.34 65 C88.13 69.99, 82.91 74.98, 67.5 89.73 M93.34 65 C84.07 73.87, 74.8 82.74, 67.5 89.73 M67.5 89.73 C54 102.73, 54 102.73, 40.5 89.73 M67.5 89.73 C54 102.73, 54 102.73, 40.5 89.73 M40.5 89.73 C29.82 79.95, 19.14 70.16, 13.5 65 M40.5 89.73 C34.77 84.48, 29.04 79.24, 13.5 65 M13.5 65 C0 52, 0 52, 13.5 39 M13.5 65 C0 52, 0 52, 13.5 39 M13.5 39 C20.34 32.42, 27.17 25.83, 40.5 13 M13.5 39 C22.47 30.36, 31.44 21.73, 40.5 13 M40.5 13 C54 0, 54 0, 67.5 13 M40.5 13 C54 0, 54 0, 67.5 13" stroke="#f08c00" stroke-width="1" fill="none"></path></g><g transform="translate(145.9511022191159 839.45654264656) rotate(0 20.203720092773438 16.271747206863324)"><text x="20.203720092773438" y="0" font-family="Virgil, Segoe UI Emoji" font-size="8.678265176993769px" fill="#f08c00" text-anchor="middle" style="white-space: pre;" direction="ltr" dominant-baseline="text-before-edge">Operation</text><text x="20.203720092773438" y="10.84783147124221" font-family="Virgil, Segoe UI Emoji" font-size="8.678265176993769px" fill="#f08c00" text-anchor="middle" style="white-space: pre;" direction="ltr" dominant-baseline="text-before-edge">is </text><text x="20.203720092773438" y="21.69566294248442" font-family="Virgil, Segoe UI Emoji" font-size="8.678265176993769px" fill="#f08c00" text-anchor="middle" style="white-space: pre;" direction="ltr" dominant-baseline="text-before-edge">pending?</text></g><g mask="url(#mask-bNinkpa1tWtT5_EFWKVEn)" stroke-linecap="round"><g transform="translate(96.71714691704028 203.85665101269012) rotate(0 -0.23443685408892634 27.16011528856461)"><path d="M0 0 C-0.06 4.67, -0.28 18.97, -0.36 28.02 C-0.43 37.08, -0.45 49.94, -0.47 54.32 M0 0 C-0.06 4.67, -0.28 18.97, -0.36 28.02 C-0.43 37.08, -0.45 49.94, -0.47 54.32" stroke="#ffffff" stroke-width="1" fill="none"></path></g><g transform="translate(96.71714691704028 203.85665101269012) rotate(0 -0.23443685408892634 27.16011528856461)"><path d="M-0.47 54.32 L-6.77 40.71 L5.91 40.74 L-0.47 54.32" stroke="none" stroke-width="0" fill="#ffffff" fill-rule="evenodd"></path><path d="M-0.47 54.32 C-2.25 50.48, -4.03 46.63, -6.77 40.71 M-0.47 54.32 C-2.55 49.82, -4.64 45.31, -6.77 40.71 M-6.77 40.71 C-2.92 40.72, 0.92 40.73, 5.91 40.74 M-6.77 40.71 C-1.89 40.72, 2.98 40.74, 5.91 40.74 M5.91 40.74 C3.41 46.06, 0.92 51.37, -0.47 54.32 M5.91 40.74 C4.61 43.51, 3.31 46.27, -0.47 54.32 M-0.47 54.32 C-0.47 54.32, -0.47 54.32, -0.47 54.32 M-0.47 54.32 C-0.47 54.32, -0.47 54.32, -0.47 54.32" stroke="#ffffff" stroke-width="1" fill="none"></path></g></g><mask id="mask-bNinkpa1tWtT5_EFWKVEn"><rect x="0" y="0" fill="#fff" width="197.18602062521825" height="358.17688158981935"></rect><rect x="90.17091977060045" y="224.29703882283388" fill="#000" width="12.379638671875" height="15.169033759786615" opacity="1"></rect></mask><g transform="translate(90.17091977060045 224.297038822834) rotate(0 6.311790292350452 6.719727478420793)"><text x="6.1898193359375" y="0" font-family="Virgil, Segoe UI Emoji" font-size="12.135227007829291px" fill="#ffffff" text-anchor="middle" style="white-space: pre;" direction="ltr" dominant-baseline="text-before-edge">no</text></g><g stroke-linecap="round"><g transform="translate(92.85320917419676 327.0514033626424) rotate(0 -0.17010893010728978 21.080398664611096)"><path d="M0 0 C-0.06 7.03, -0.28 35.13, -0.34 42.16 M0 0 C-0.06 7.03, -0.28 35.13, -0.34 42.16" stroke="#ffffff" stroke-width="1" fill="none"></path></g></g><mask></mask><g mask="url(#mask-h3SEo2p-kNcJcJB_bbO8B)" stroke-linecap="round"><g transform="translate(91.442991592211 506.3240480014573) rotate(0 -0.045862318609124486 27.70665852032107)"><path d="M0 0 C-0.02 4.01, -0.09 14.81, -0.09 24.04 C-0.09 33.28, -0.02 50.19, 0 55.41 M0 0 C-0.02 4.01, -0.09 14.81, -0.09 24.04 C-0.09 33.28, -0.02 50.19, 0 55.41" stroke="#ffffff" stroke-width="1" fill="none"></path></g><g transform="translate(91.442991592211 506.3240480014573) rotate(0 -0.045862318609124486 27.70665852032107)"><path d="M0 55.41 L-6.39 41.84 L6.29 41.8 L0 55.41" stroke="none" stroke-width="0" fill="#ffffff" fill-rule="evenodd"></path><path d="M0 55.41 C-1.29 52.68, -2.57 49.95, -6.39 41.84 M0 55.41 C-1.31 52.63, -2.62 49.84, -6.39 41.84 M-6.39 41.84 C-2.73 41.83, 0.92 41.82, 6.29 41.8 M-6.39 41.84 C-2.94 41.83, 0.52 41.82, 6.29 41.8 M6.29 41.8 C3.93 46.89, 1.58 51.99, 0 55.41 M6.29 41.8 C4.41 45.86, 2.54 49.92, 0 55.41 M0 55.41 C0 55.41, 0 55.41, 0 55.41 M0 55.41 C0 55.41, 0 55.41, 0 55.41" stroke="#ffffff" stroke-width="1" fill="none"></path></g></g><mask id="mask-h3SEo2p-kNcJcJB_bbO8B"><rect x="0" y="0" fill="#fff" width="191.53471622942925" height="661.7373650420994"></rect><rect x="85.1614476190557" y="522.7834840474573" fill="#000" width="12.379638671875" height="15.169033759786615" opacity="1"></rect></mask><g transform="translate(85.16144761905525 522.7834840474573) rotate(0 6.2356816545466245 11.24722247432112)"><text x="6.1898193359375" y="0" font-family="Virgil, Segoe UI Emoji" font-size="12.135227007829291px" fill="#ffffff" text-anchor="middle" style="white-space: pre;" direction="ltr" dominant-baseline="text-before-edge">no</text></g><g mask="url(#mask--INeEig5XtKkQnxTRN6E5)" stroke-linecap="round"><g transform="translate(159.29310279380434 445.3718576462285) rotate(0 31.615439818355753 0)"><path d="M0 0 C10.54 0, 52.69 0, 63.23 0 M0 0 C10.54 0, 52.69 0, 63.23 0" stroke="#ffffff" stroke-width="1" fill="none"></path></g><g transform="translate(159.29310279380434 445.3718576462285) rotate(0 31.615439818355753 0)"><path d="M63.23 0 L49.64 6.34 L49.64 -6.34 L63.23 0" stroke="none" stroke-width="0" fill="#ffffff" fill-rule="evenodd"></path><path d="M63.23 0 C59.95 1.53, 56.66 3.06, 49.64 6.34 M63.23 0 C60.35 1.34, 57.47 2.69, 49.64 6.34 M49.64 6.34 C49.64 1.75, 49.64 -2.83, 49.64 -6.34 M49.64 6.34 C49.64 3.04, 49.64 -0.26, 49.64 -6.34 M49.64 -6.34 C52.65 -4.93, 55.66 -3.53, 63.23 0 M49.64 -6.34 C54.04 -4.28, 58.45 -2.23, 63.23 0 M63.23 0 C63.23 0, 63.23 0, 63.23 0 M63.23 0 C63.23 0, 63.23 0, 63.23 0" stroke="#ffffff" stroke-width="1" fill="none"></path></g></g><mask id="mask--INeEig5XtKkQnxTRN6E5"><rect x="0" y="0" fill="#fff" width="322.52398243051573" height="545.3718576462285"></rect><rect x="181.45709607895697" y="437.7873407663353" fill="#000" width="18.90289306640625" height="15.169033759786615" opacity="1"></rect></mask><g transform="translate(181.45709607895697 437.7873407663353) rotate(0 9.45144653320358 7.584516879893272)"><text x="9.451446533203125" y="0" font-family="Virgil, Segoe UI Emoji" font-size="12.135227007829291px" fill="#ffffff" text-anchor="middle" style="white-space: pre;" direction="ltr" dominant-baseline="text-before-edge">yes</text></g><g stroke-linecap="round"><g transform="translate(83.18455011013475 616.135661009953) rotate(0 41.46248102751383 21.535354229855216)"><path d="M0 0 C-0.18 13.39, -0.35 26.77, -0.56 42.85 M0 0 C-0.2 15.29, -0.4 30.58, -0.56 42.85 M-0.56 42.85 C31.6 42.94, 63.77 43.02, 83.49 43.07 M-0.56 42.85 C32.51 42.94, 65.58 43.02, 83.49 43.07" stroke="#ffffff" stroke-width="1" fill="none"></path></g></g><mask></mask><g stroke-linecap="round"><g transform="translate(269.6442687586491 469.4111199398053) rotate(0 -51.157789885531656 94.95734121865274)"><path d="M0 0 C0.14 41.65, 0.29 83.29, 0.65 189.62 M0 0 C0.17 49.58, 0.34 99.15, 0.65 189.62 M0.65 189.62 C-27.29 189.7, -55.24 189.78, -102.97 189.91 M0.65 189.62 C-26.63 189.7, -53.91 189.78, -102.97 189.91" stroke="#ffffff" stroke-width="1" fill="none"></path></g></g><mask></mask><g stroke-linecap="round"><g transform="translate(168.06642575276737 659.3254937345761) rotate(0 -0.12970763915018324 9.33909351165795)"><path d="M0 0 C-0.06 4.49, -0.12 8.97, -0.26 18.68 M0 0 C-0.08 5.6, -0.16 11.19, -0.26 18.68" stroke="#ffffff" stroke-width="1" fill="none"></path></g><g transform="translate(168.06642575276737 659.3254937345761) rotate(0 -0.12970763915018324 9.33909351165795)"><path d="M-0.26 18.68 L-4.09 10.16 L3.81 10.27 L-0.26 18.68" stroke="none" stroke-width="0" fill="#ffffff" fill-rule="evenodd"></path><path d="M-0.26 18.68 C-1.18 16.63, -2.1 14.59, -4.09 10.16 M-0.26 18.68 C-1.41 16.13, -2.55 13.57, -4.09 10.16 M-4.09 10.16 C-1.27 10.2, 1.56 10.24, 3.81 10.27 M-4.09 10.16 C-1.26 10.2, 1.58 10.24, 3.81 10.27 M3.81 10.27 C2.33 13.33, 0.85 16.39, -0.26 18.68 M3.81 10.27 C2.88 12.17, 1.96 14.08, -0.26 18.68 M-0.26 18.68 C-0.26 18.68, -0.26 18.68, -0.26 18.68 M-0.26 18.68 C-0.26 18.68, -0.26 18.68, -0.26 18.68" stroke="#ffffff" stroke-width="1" fill="none"></path></g></g><mask></mask><g stroke-linecap="round"><g transform="translate(214.36797450959557 722.315540592176) rotate(0 32.234529427080815 0)"><path d="M0 0 C17.92 0, 35.83 0, 64.47 0 M0 0 C14.74 0, 29.49 0, 64.47 0" stroke="#ffffff" stroke-width="1" fill="none"></path></g><g transform="translate(214.36797450959557 722.315540592176) rotate(0 32.234529427080815 0)"><path d="M64.47 0 L50.87 6.34 L50.87 -6.34 L64.47 0" stroke="none" stroke-width="0" fill="#ffffff" fill-rule="evenodd"></path><path d="M64.47 0 C60.69 1.76, 56.91 3.52, 50.87 6.34 M64.47 0 C61.36 1.45, 58.25 2.9, 50.87 6.34 M50.87 6.34 C50.87 1.69, 50.87 -2.97, 50.87 -6.34 M50.87 6.34 C50.87 3.63, 50.87 0.92, 50.87 -6.34 M50.87 -6.34 C55.75 -4.06, 60.63 -1.79, 64.47 0 M50.87 -6.34 C55.85 -4.02, 60.83 -1.7, 64.47 0 M64.47 0 C64.47 0, 64.47 0, 64.47 0 M64.47 0 C64.47 0, 64.47 0, 64.47 0" stroke="#ffffff" stroke-width="1" fill="none"></path></g></g><mask></mask><g stroke-linecap="round"><g transform="translate(167.23592500797486 768.8948719138767) rotate(0 -0.09489934085104323 19.123248468919883)"><path d="M0 0 C-0.05 10.71, -0.11 21.41, -0.19 38.25 M0 0 C-0.06 11.83, -0.12 23.66, -0.19 38.25" stroke="#ffffff" stroke-width="1" fill="none"></path></g><g transform="translate(167.23592500797486 768.8948719138767) rotate(0 -0.09489934085104323 19.123248468919883)"><path d="M-0.19 38.25 L-6.46 24.62 L6.22 24.68 L-0.19 38.25" stroke="none" stroke-width="0" fill="#ffffff" fill-rule="evenodd"></path><path d="M-0.19 38.25 C-1.95 34.43, -3.7 30.62, -6.46 24.62 M-0.19 38.25 C-2.13 34.03, -4.07 29.82, -6.46 24.62 M-6.46 24.62 C-3.02 24.64, 0.42 24.65, 6.22 24.68 M-6.46 24.62 C-1.66 24.64, 3.14 24.67, 6.22 24.68 M6.22 24.68 C3.68 30.05, 1.15 35.42, -0.19 38.25 M6.22 24.68 C4.26 28.84, 2.29 32.99, -0.19 38.25 M-0.19 38.25 C-0.19 38.25, -0.19 38.25, -0.19 38.25 M-0.19 38.25 C-0.19 38.25, -0.19 38.25, -0.19 38.25" stroke="#ffffff" stroke-width="1" fill="none"></path></g></g><mask></mask><g stroke-linecap="round"><g transform="translate(346.63698508326115 1034.3525550832346) rotate(0 25.272332926833315 0)"><path d="M0 0 C16.36 0, 32.72 0, 50.54 0 M0 0 C19.54 0, 39.08 0, 50.54 0" stroke="#ffffff" stroke-width="1" fill="none"></path></g><g transform="translate(346.63698508326115 1034.3525550832346) rotate(0 25.272332926833315 0)"><path d="M50.54 0 L36.95 6.34 L36.95 -6.34 L50.54 0" stroke="none" stroke-width="0" fill="#ffffff" fill-rule="evenodd"></path><path d="M50.54 0 C46.14 2.05, 41.74 4.1, 36.95 6.34 M50.54 0 C45.29 2.45, 40.03 4.9, 36.95 6.34 M36.95 6.34 C36.95 3.52, 36.95 0.7, 36.95 -6.34 M36.95 6.34 C36.95 1.73, 36.95 -2.89, 36.95 -6.34 M36.95 -6.34 C41.39 -4.27, 45.82 -2.2, 50.54 0 M36.95 -6.34 C41.22 -4.35, 45.49 -2.36, 50.54 0 M50.54 0 C50.54 0, 50.54 0, 50.54 0 M50.54 0 C50.54 0, 50.54 0, 50.54 0" stroke="#ffffff" stroke-width="1" fill="none"></path></g></g><mask></mask><g stroke-linecap="round"><g transform="translate(10 855.7340830977622) rotate(0 39.47681105655329 -250.5676896478928)"><path d="M0 0 C0.1 -175.92, 0.2 -351.83, 0.28 -501.14 M0 0 C0.07 -121.14, 0.13 -242.29, 0.28 -501.14 M0.28 -501.14 C22.57 -501.05, 44.86 -500.96, 78.95 -500.83 M0.28 -501.14 C18.1 -501.07, 35.92 -501, 78.95 -500.83" stroke="#ffffff" stroke-width="1" fill="none"></path></g><g transform="translate(10 855.7340830977622) rotate(0 39.47681105655329 -250.5676896478928)"><path d="M78.95 -500.83 L65.33 -494.54 L65.38 -507.22 L78.95 -500.83" stroke="none" stroke-width="0" fill="#ffffff" fill-rule="evenodd"></path><path d="M78.95 -500.83 C74.17 -498.62, 69.39 -496.41, 65.33 -494.54 M78.95 -500.83 C75.66 -499.31, 72.37 -497.79, 65.33 -494.54 M65.33 -494.54 C65.35 -498.13, 65.36 -501.72, 65.38 -507.22 M65.33 -494.54 C65.35 -497.41, 65.36 -500.28, 65.38 -507.22 M65.38 -507.22 C69.55 -505.25, 73.72 -503.29, 78.95 -500.83 M65.38 -507.22 C68.1 -505.94, 70.82 -504.66, 78.95 -500.83 M78.95 -500.83 C78.95 -500.83, 78.95 -500.83, 78.95 -500.83 M78.95 -500.83 C78.95 -500.83, 78.95 -500.83, 78.95 -500.83" stroke="#ffffff" stroke-width="1" fill="none"></path></g></g><mask></mask><g stroke-linecap="round"><g transform="translate(116.62723550411602 856.3141187012608) rotate(0 -53.148472214741105 -0.2836248543902684)"><path d="M0 0 C-27.74 -0.15, -55.48 -0.3, -106.3 -0.57 M0 0 C-22.04 -0.12, -44.07 -0.24, -106.3 -0.57" stroke="#ffffff" stroke-width="1" fill="none"></path></g></g><mask></mask><g stroke-linecap="round" transform="translate(55.39848354166861 843.5037436921513) rotate(0 17.06516297975986 13)"><path d="M0 0 L34.13 0 L34.13 26 L0 26" stroke="none" stroke-width="0" fill="#050505"></path><path d="M0 0 C12.56 0, 25.11 0, 34.13 0 M0 0 C9.7 0, 19.41 0, 34.13 0 M34.13 0 C34.13 7.93, 34.13 15.86, 34.13 26 M34.13 0 C34.13 7.46, 34.13 14.92, 34.13 26 M34.13 26 C26.63 26, 19.12 26, 0 26 M34.13 26 C24.22 26, 14.31 26, 0 26 M0 26 C0 16.07, 0 6.13, 0 0 M0 26 C0 18.06, 0 10.12, 0 0" stroke="#050505" stroke-width="1" fill="none"></path></g><g transform="translate(63.01219998822535 848.919226812258) rotate(0 9.451446533203125 7.584516879893272)"><text x="9.451446533203125" y="0" font-family="Virgil, Segoe UI Emoji" font-size="12.135227007829291px" fill="#ffffff" text-anchor="middle" style="white-space: pre;" direction="ltr" dominant-baseline="text-before-edge">yes</text></g><g mask="url(#mask-is8v6CcXH3Ttc9Awf3Z7k)" stroke-linecap="round"><g transform="translate(144.72310509951467 162.15113665153842) rotate(0 171.7561967171182 1.2059079450232275)"><path d="M0 0 C84.19 0.59, 168.39 1.18, 343.51 2.41 M0 0 C93.66 0.66, 187.32 1.32, 343.51 2.41" stroke="#ffffff" stroke-width="1" fill="none"></path></g><g transform="translate(144.72310509951467 162.15113665153842) rotate(0 171.7561967171182 1.2059079450232275)"><path d="M343.51 2.41 L329.87 8.66 L329.96 -4.02 L343.51 2.41" stroke="none" stroke-width="0" fill="#ffffff" fill-rule="evenodd"></path><path d="M343.51 2.41 C340.17 3.94, 336.83 5.47, 329.87 8.66 M343.51 2.41 C339.79 4.11, 336.07 5.82, 329.87 8.66 M329.87 8.66 C329.9 5.19, 329.92 1.73, 329.96 -4.02 M329.87 8.66 C329.91 3.77, 329.94 -1.12, 329.96 -4.02 M329.96 -4.02 C334.33 -1.95, 338.69 0.12, 343.51 2.41 M329.96 -4.02 C332.91 -2.62, 335.86 -1.22, 343.51 2.41 M343.51 2.41 C343.51 2.41, 343.51 2.41, 343.51 2.41 M343.51 2.41 C343.51 2.41, 343.51 2.41, 343.51 2.41" stroke="#ffffff" stroke-width="1" fill="none"></path></g></g><mask id="mask-is8v6CcXH3Ttc9Awf3Z7k"><rect x="0" y="0" fill="#fff" width="588.2354985337511" height="264.5629525415849"></rect><rect x="307.02785528342883" y="155.77252771666826" fill="#000" width="18.90289306640625" height="15.169033759786615" opacity="1"></rect></mask><g transform="translate(307.02785528342974 155.77252771666832) rotate(0 9.45144653320358 7.584516879893329)"><text x="9.451446533203125" y="0" font-family="Virgil, Segoe UI Emoji" font-size="12.135227007829291px" fill="#ffffff" text-anchor="middle" style="white-space: pre;" direction="ltr" dominant-baseline="text-before-edge">yes</text></g><g stroke-linecap="round"><g transform="translate(533.5377499126676 190.74774424766372) rotate(0 0 22.18066096361673)"><path d="M0 0 C0 11.94, 0 23.89, 0 44.36 M0 0 C0 9.87, 0 19.75, 0 44.36" stroke="#ffffff" stroke-width="1" fill="none"></path></g></g><mask></mask><g mask="url(#mask-oAu-ETFF-Is_JTCE0vxFH)" stroke-linecap="round"><g transform="translate(535.9682227013304 336.47394555280414) rotate(0 -0.6742942431119445 16.13004523329812)"><path d="M0 0 C-0.29 1.5, -0.59 3, -0.81 4.13 M0 0 C-0.22 1.12, -0.44 2.24, -0.81 4.13 M-0.81 4.13 C-1.01 14.7, -1.21 25.28, -1.35 32.26 M-0.81 4.13 C-0.98 13, -1.15 21.87, -1.35 32.26" stroke="#ffffff" stroke-width="1" fill="none"></path></g><g transform="translate(535.9682227013304 336.47394555280414) rotate(0 -0.6742942431119445 16.13004523329812)"><path d="M-1.35 32.26 L-7.43 18.55 L5.25 18.79 L-1.35 32.26" stroke="none" stroke-width="0" fill="#ffffff" fill-rule="evenodd"></path><path d="M-1.35 32.26 C-3.55 27.28, -5.76 22.3, -7.43 18.55 M-1.35 32.26 C-3 28.54, -4.65 24.82, -7.43 18.55 M-7.43 18.55 C-2.66 18.64, 2.11 18.73, 5.25 18.79 M-7.43 18.55 C-3.43 18.62, 0.57 18.7, 5.25 18.79 M5.25 18.79 C3.9 21.55, 2.55 24.3, -1.35 32.26 M5.25 18.79 C2.7 23.99, 0.15 29.19, -1.35 32.26 M-1.35 32.26 C-1.35 32.26, -1.35 32.26, -1.35 32.26 M-1.35 32.26 C-1.35 32.26, -1.35 32.26, -1.35 32.26" stroke="#ffffff" stroke-width="1" fill="none"></path></g></g><mask id="mask-oAu-ETFF-Is_JTCE0vxFH"><rect x="0" y="0" fill="#fff" width="637.3168111875543" height="468.7340360194004"></rect><rect x="528.9708189419707" y="333.01794762683255" fill="#000" width="12.379638671875" height="15.169033759786615" opacity="1"></rect></mask><g transform="translate(528.9708189419707 333.01794762683244) rotate(0 6.323109516247314 19.586043159269707)"><text x="6.1898193359375" y="0" font-family="Virgil, Segoe UI Emoji" font-size="12.135227007829291px" fill="#ffffff" text-anchor="middle" style="white-space: pre;" direction="ltr" dominant-baseline="text-before-edge">no</text></g><g stroke-linecap="round" transform="translate(784.5713673291734 347.37206965325447) rotate(0 47.63172911177162 45.920345029310056)"><path d="M60 11.5 M60 11.5 C65.01 16.45, 70.02 21.41, 83.26 34.5 M60 11.5 C67.14 18.56, 74.28 25.61, 83.26 34.5 M83.26 34.5 C95.26 46, 95.26 46, 83.26 57.5 M83.26 34.5 C95.26 46, 95.26 46, 83.26 57.5 M83.26 57.5 C78.6 62.08, 73.94 66.66, 60 80.34 M83.26 57.5 C78.23 62.44, 73.2 67.38, 60 80.34 M60 80.34 C48 91.84, 48 91.84, 36 80.34 M60 80.34 C48 91.84, 48 91.84, 36 80.34 M36 80.34 C29.14 73.81, 22.29 67.29, 12 57.5 M36 80.34 C26.75 71.54, 17.51 62.74, 12 57.5 M12 57.5 C0 46, 0 46, 12 34.5 M12 57.5 C0 46, 0 46, 12 34.5 M12 34.5 C20.06 26.77, 28.12 19.05, 36 11.5 M12 34.5 C19.1 27.69, 26.2 20.89, 36 11.5 M36 11.5 C48 0, 48 0, 60 11.5 M36 11.5 C48 0, 48 0, 60 11.5" stroke="#f08c00" stroke-width="1" fill="none"></path></g><g transform="translate(814.2185993777362 384.5227866643904) rotate(0 18.16863250732422 8.809455503519075)"><text x="18.16863250732422" y="0" font-family="Virgil, Segoe UI Emoji" font-size="7.047564402815281px" fill="#f08c00" text-anchor="middle" style="white-space: pre;" direction="ltr" dominant-baseline="text-before-edge">Operation </text><text x="18.16863250732422" y="8.809455503519102" font-family="Virgil, Segoe UI Emoji" font-size="7.047564402815281px" fill="#f08c00" text-anchor="middle" style="white-space: pre;" direction="ltr" dominant-baseline="text-before-edge">complete?</text></g><g stroke-linecap="round" transform="translate(624.2739379228983 595.3295629180024) rotate(0 51.953940627269276 43)"><path d="M65 11 M65 11 C74.44 19.02, 83.89 27.04, 90.91 33 M65 11 C71.64 16.64, 78.28 22.28, 90.91 33 M90.91 33 C103.91 44, 103.91 44, 90.91 55 M90.91 33 C103.91 44, 103.91 44, 90.91 55 M90.91 55 C84.61 59.86, 78.31 64.72, 65 75 M90.91 55 C81.33 62.4, 71.75 69.79, 65 75 M65 75 C52 86, 52 86, 39 75 M65 75 C52 86, 52 86, 39 75 M39 75 C30.88 68.75, 22.76 62.51, 13 55 M39 75 C33.78 70.98, 28.55 66.96, 13 55 M13 55 C0 44, 0 44, 13 33 M13 55 C0 44, 0 44, 13 33 M13 33 C18.64 28.23, 24.28 23.46, 39 11 M13 33 C21.26 26.01, 29.53 19.01, 39 11 M39 11 C52 0, 52 0, 65 11 M39 11 C52 0, 52 0, 65 11" stroke="#f08c00" stroke-width="1" fill="none"></path></g><g transform="translate(656.2297061491313 622.2247770756316) rotate(0 20.021202087402344 16.10478584237086)"><text x="20.021202087402344" y="0" font-family="Virgil, Segoe UI Emoji" font-size="8.589219115931124px" fill="#f08c00" text-anchor="middle" style="white-space: pre;" direction="ltr" dominant-baseline="text-before-edge">Operation</text><text x="20.021202087402344" y="10.736523894913905" font-family="Virgil, Segoe UI Emoji" font-size="8.589219115931124px" fill="#f08c00" text-anchor="middle" style="white-space: pre;" direction="ltr" dominant-baseline="text-before-edge">is </text><text x="20.021202087402344" y="21.47304778982781" font-family="Virgil, Segoe UI Emoji" font-size="8.589219115931124px" fill="#f08c00" text-anchor="middle" style="white-space: pre;" direction="ltr" dominant-baseline="text-before-edge">pending?</text></g><g stroke-linecap="round" transform="translate(641.8703084670155 460.36160603132714) rotate(0 49.09062782390674 23.30251320755059)"><path d="M11.65 0 M11.65 0 C32.58 0, 53.5 0, 86.53 0 M11.65 0 C31.47 0, 51.29 0, 86.53 0 M86.53 0 C94.3 0, 98.18 3.88, 98.18 11.65 M86.53 0 C94.3 0, 98.18 3.88, 98.18 11.65 M98.18 11.65 C98.18 20.38, 98.18 29.1, 98.18 34.95 M98.18 11.65 C98.18 17.6, 98.18 23.55, 98.18 34.95 M98.18 34.95 C98.18 42.72, 94.3 46.61, 86.53 46.61 M98.18 34.95 C98.18 42.72, 94.3 46.61, 86.53 46.61 M86.53 46.61 C59.04 46.61, 31.55 46.61, 11.65 46.61 M86.53 46.61 C71 46.61, 55.48 46.61, 11.65 46.61 M11.65 46.61 C3.88 46.61, 0 42.72, 0 34.95 M11.65 46.61 C3.88 46.61, 0 42.72, 0 34.95 M0 34.95 C0 29.13, 0 23.31, 0 11.65 M0 34.95 C0 27.69, 0 20.42, 0 11.65 M0 11.65 C0 3.88, 3.88 0, 11.65 0 M0 11.65 C0 3.88, 3.88 0, 11.65 0" stroke="#ff8787" stroke-width="1" fill="none"></path></g><g transform="translate(647.9718463251024 471.42131670267236) rotate(0 42.98908996582031 12.242802536205375)"><text x="42.98908996582031" y="0" font-family="Virgil, Segoe UI Emoji" font-size="9.794242028964305px" fill="#ff8787" text-anchor="middle" style="white-space: pre;" direction="ltr" dominant-baseline="text-before-edge">Return result to </text><text x="42.98908996582031" y="12.242802536205382" font-family="Virgil, Segoe UI Emoji" font-size="9.794242028964305px" fill="#ff8787" text-anchor="middle" style="white-space: pre;" direction="ltr" dominant-baseline="text-before-edge">JavaScript</text></g><g stroke-linecap="round"><g transform="translate(533.0545853751496 417.7894974807324) rotate(0 -0.056642783705228794 9.16167708880505)"><path d="M0 0 C-0.04 6.2, -0.08 12.4, -0.11 18.32 M0 0 C-0.04 6.57, -0.08 13.13, -0.11 18.32" stroke="#ffffff" stroke-width="1" fill="none"></path></g></g><mask></mask><g mask="url(#mask-hR-rRV7JaPbA7klsbY3WN)" stroke-linecap="round"><g transform="translate(575.6223363760469 483.1881786947664) rotate(0 31.360568793745188 -0.1953581403604403)"><path d="M0 0 C10.06 -0.12, 20.12 -0.24, 29.11 -0.35 M0 0 C7.24 -0.09, 14.47 -0.18, 29.11 -0.35 M29.11 -0.35 C39.44 -0.37, 49.76 -0.38, 62.72 -0.39 M29.11 -0.35 C40.35 -0.37, 51.6 -0.38, 62.72 -0.39" stroke="#ffffff" stroke-width="1" fill="none"></path></g><g transform="translate(575.6223363760469 483.1881786947664) rotate(0 31.360568793745188 -0.1953581403604403)"><path d="M62.72 -0.39 L49.13 5.96 L49.12 -6.72 L62.72 -0.39" stroke="none" stroke-width="0" fill="#ffffff" fill-rule="evenodd"></path><path d="M62.72 -0.39 C58.02 1.81, 53.33 4, 49.13 5.96 M62.72 -0.39 C59.34 1.19, 55.97 2.77, 49.13 5.96 M49.13 5.96 C49.13 2.07, 49.12 -1.83, 49.12 -6.72 M49.13 5.96 C49.13 1.72, 49.12 -2.52, 49.12 -6.72 M49.12 -6.72 C52.32 -5.23, 55.52 -3.74, 62.72 -0.39 M49.12 -6.72 C51.94 -5.4, 54.77 -4.09, 62.72 -0.39 M62.72 -0.39 C62.72 -0.39, 62.72 -0.39, 62.72 -0.39 M62.72 -0.39 C62.72 -0.39, 62.72 -0.39, 62.72 -0.39" stroke="#ffffff" stroke-width="1" fill="none"></path></g></g><mask id="mask-hR-rRV7JaPbA7klsbY3WN"><rect x="0" y="0" fill="#fff" width="738.3434739635372" height="583.5788949754873"></rect><rect x="595.2776150975678" y="475.24939377086025" fill="#000" width="18.90289306640625" height="15.169033759786615" opacity="1"></rect></mask><g transform="translate(595.2776150975678 475.24939377086014) rotate(0 11.70529007222467 7.743426783545715)"><text x="9.451446533203125" y="0" font-family="Virgil, Segoe UI Emoji" font-size="12.135227007829291px" fill="#ffffff" text-anchor="middle" style="white-space: pre;" direction="ltr" dominant-baseline="text-before-edge">yes</text></g><g stroke-linecap="round" transform="translate(784.4101510087835 252.23216773336128) rotate(0 49.09062782390674 23.30251320755059)"><path d="M11.65 0 M11.65 0 C39.58 0, 67.52 0, 86.53 0 M11.65 0 C39.7 0, 67.76 0, 86.53 0 M86.53 0 C94.3 0, 98.18 3.88, 98.18 11.65 M86.53 0 C94.3 0, 98.18 3.88, 98.18 11.65 M98.18 11.65 C98.18 20.92, 98.18 30.19, 98.18 34.95 M98.18 11.65 C98.18 16.33, 98.18 21.01, 98.18 34.95 M98.18 34.95 C98.18 42.72, 94.3 46.61, 86.53 46.61 M98.18 34.95 C98.18 42.72, 94.3 46.61, 86.53 46.61 M86.53 46.61 C61.63 46.61, 36.74 46.61, 11.65 46.61 M86.53 46.61 C59.77 46.61, 33 46.61, 11.65 46.61 M11.65 46.61 C3.88 46.61, 0 42.72, 0 34.95 M11.65 46.61 C3.88 46.61, 0 42.72, 0 34.95 M0 34.95 C0 28.01, 0 21.07, 0 11.65 M0 34.95 C0 27.39, 0 19.82, 0 11.65 M0 11.65 C0 3.88, 3.88 0, 11.65 0 M0 11.65 C0 3.88, 3.88 0, 11.65 0" stroke="#ffffff" stroke-width="1" fill="none"></path></g><g transform="translate(793.7395331051516 263.2918784047065) rotate(0 39.76124572753906 12.242802536205375)"><text x="39.76124572753906" y="0" font-family="Virgil, Segoe UI Emoji" font-size="9.794242028964305px" fill="#ffffff" text-anchor="middle" style="white-space: pre;" direction="ltr" dominant-baseline="text-before-edge">Execute Native </text><text x="39.76124572753906" y="12.242802536205382" font-family="Virgil, Segoe UI Emoji" font-size="9.794242028964305px" fill="#ffffff" text-anchor="middle" style="white-space: pre;" direction="ltr" dominant-baseline="text-before-edge">code directly</text></g><g mask="url(#mask-t1u2Eiyfy0ZsnzbvDAfig)" stroke-linecap="round"><g transform="translate(580.4800733722218 276.1648588938075) rotate(0 101.46503881828085 0.208719556220899)"><path d="M0 0 C57.24 0.12, 114.47 0.24, 202.93 0.42 M0 0 C58.18 0.12, 116.36 0.24, 202.93 0.42" stroke="#ffffff" stroke-width="1" fill="none"></path></g><g transform="translate(580.4800733722218 276.1648588938075) rotate(0 101.46503881828085 0.208719556220899)"><path d="M202.93 0.42 L189.32 6.73 L189.35 -5.95 L202.93 0.42" stroke="none" stroke-width="0" fill="#ffffff" fill-rule="evenodd"></path><path d="M202.93 0.42 C199.09 2.2, 195.25 3.98, 189.32 6.73 M202.93 0.42 C199.03 2.23, 195.13 4.04, 189.32 6.73 M189.32 6.73 C189.33 3.2, 189.34 -0.33, 189.35 -5.95 M189.32 6.73 C189.33 2.3, 189.34 -2.14, 189.35 -5.95 M189.35 -5.95 C194.7 -3.44, 200.05 -0.93, 202.93 0.42 M189.35 -5.95 C193.02 -4.23, 196.7 -2.5, 202.93 0.42 M202.93 0.42 C202.93 0.42, 202.93 0.42, 202.93 0.42 M202.93 0.42 C202.93 0.42, 202.93 0.42, 202.93 0.42" stroke="#ffffff" stroke-width="1" fill="none"></path></g></g><mask id="mask-t1u2Eiyfy0ZsnzbvDAfig"><rect x="0" y="0" fill="#fff" width="883.4101510087835" height="376.5822980062493"></rect><rect x="672.4936656572991" y="268.7890615701351" fill="#000" width="18.90289306640625" height="15.169033759786615" opacity="1"></rect></mask><g transform="translate(672.4936656572991 268.7890615701351) rotate(0 9.451446533203125 7.584516879893272)"><text x="9.451446533203125" y="0" font-family="Virgil, Segoe UI Emoji" font-size="12.135227007829291px" fill="#ffffff" text-anchor="middle" style="white-space: pre;" direction="ltr" dominant-baseline="text-before-edge">yes</text></g><g stroke-linecap="round"><g transform="translate(834.7243089493145 299.8371941484626) rotate(0 -0.05046404861468545 22.97281453176572)"><path d="M0 0 C-0.03 14.62, -0.06 29.24, -0.1 45.95 M0 0 C-0.04 16.77, -0.07 33.53, -0.1 45.95" stroke="#ffffff" stroke-width="1" fill="none"></path></g></g><mask></mask><g stroke-linecap="round" transform="translate(958.4327873440902 350.1582924415218) rotate(0 49.09062782390674 23.30251320755059)"><path d="M11.65 0 M11.65 0 C34.52 0, 57.39 0, 86.53 0 M11.65 0 C40.61 0, 69.57 0, 86.53 0 M86.53 0 C94.3 0, 98.18 3.88, 98.18 11.65 M86.53 0 C94.3 0, 98.18 3.88, 98.18 11.65 M98.18 11.65 C98.18 17.22, 98.18 22.78, 98.18 34.95 M98.18 11.65 C98.18 18.97, 98.18 26.29, 98.18 34.95 M98.18 34.95 C98.18 42.72, 94.3 46.61, 86.53 46.61 M98.18 34.95 C98.18 42.72, 94.3 46.61, 86.53 46.61 M86.53 46.61 C70.14 46.61, 53.75 46.61, 11.65 46.61 M86.53 46.61 C70.99 46.61, 55.45 46.61, 11.65 46.61 M11.65 46.61 C3.88 46.61, 0 42.72, 0 34.95 M11.65 46.61 C3.88 46.61, 0 42.72, 0 34.95 M0 34.95 C0 26.71, 0 18.47, 0 11.65 M0 34.95 C0 29.39, 0 23.82, 0 11.65 M0 11.65 C0 3.88, 3.88 0, 11.65 0 M0 11.65 C0 3.88, 3.88 0, 11.65 0" stroke="#ff8787" stroke-width="1" fill="none"></path></g><g transform="translate(964.5343252021753 361.218003112867) rotate(0 42.98908996582031 12.242802536205375)"><text x="42.98908996582031" y="0" font-family="Virgil, Segoe UI Emoji" font-size="9.794242028964305px" fill="#ff8787" text-anchor="middle" style="white-space: pre;" direction="ltr" dominant-baseline="text-before-edge">Return result to </text><text x="42.98908996582031" y="12.242802536205382" font-family="Virgil, Segoe UI Emoji" font-size="9.794242028964305px" fill="#ff8787" text-anchor="middle" style="white-space: pre;" direction="ltr" dominant-baseline="text-before-edge">JavaScript</text></g><g mask="url(#mask-b4Q76Rud0DtKwa2ZsyEIx)" stroke-linecap="round"><g transform="translate(877.774456705672 373.8582578790912) rotate(0 36.719746243779355 0.02381684266561024)"><path d="M0 0 C17.36 0.01, 34.72 0.02, 73.44 0.05 M0 0 C25.09 0.02, 50.18 0.03, 73.44 0.05" stroke="#ffffff" stroke-width="1" fill="none"></path></g><g transform="translate(877.774456705672 373.8582578790912) rotate(0 36.719746243779355 0.02381684266561024)"><path d="M73.44 0.05 L59.84 6.38 L59.85 -6.3 L73.44 0.05" stroke="none" stroke-width="0" fill="#ffffff" fill-rule="evenodd"></path><path d="M73.44 0.05 C70.22 1.54, 67.01 3.04, 59.84 6.38 M73.44 0.05 C68.79 2.21, 64.15 4.37, 59.84 6.38 M59.84 6.38 C59.84 1.6, 59.85 -3.17, 59.85 -6.3 M59.84 6.38 C59.84 1.5, 59.85 -3.38, 59.85 -6.3 M59.85 -6.3 C64.76 -4.01, 69.68 -1.71, 73.44 0.05 M59.85 -6.3 C65 -3.89, 70.15 -1.49, 73.44 0.05 M73.44 0.05 C73.44 0.05, 73.44 0.05, 73.44 0.05 M73.44 0.05 C73.44 0.05, 73.44 0.05, 73.44 0.05" stroke="#ffffff" stroke-width="1" fill="none"></path></g></g><mask id="mask-b4Q76Rud0DtKwa2ZsyEIx"><rect x="0" y="0" fill="#fff" width="1051.2139491932307" height="473.9058915644224"></rect><rect x="905.0427564162492" y="366.2975578418635" fill="#000" width="18.90289306640625" height="15.169033759786615" opacity="1"></rect></mask><g transform="translate(905.0427564162492 366.2975578418635) rotate(0 9.45144653320267 7.584516879893272)"><text x="9.451446533203125" y="0" font-family="Virgil, Segoe UI Emoji" font-size="12.135227007829291px" fill="#ffffff" text-anchor="middle" style="white-space: pre;" direction="ltr" dominant-baseline="text-before-edge">yes</text></g><g mask="url(#mask-XRIqtFoOXobZ1bthB0FKQ)" stroke-linecap="round"><g transform="translate(531.9880597564256 527.6895051331962) rotate(0 41.462481027513604 13.032528809669145)"><path d="M0 0 C-0.15 6.95, -0.3 13.9, -0.56 25.85 M0 0 C-0.15 6.86, -0.3 13.71, -0.56 25.85 M-0.56 25.85 C24.31 25.91, 49.18 25.98, 83.49 26.07 M-0.56 25.85 C27.21 25.92, 54.99 25.99, 83.49 26.07" stroke="#ffffff" stroke-width="1" fill="none"></path></g></g><mask id="mask-XRIqtFoOXobZ1bthB0FKQ"><rect x="0" y="0" fill="#fff" width="716.0424144293546" height="653.7545627525345"></rect><rect x="525.2335441115374" y="545.9537262033704" fill="#000" width="12.379638671875" height="15.169033759786615" opacity="1"></rect></mask><g transform="translate(525.2335441115374 545.9537262033704) rotate(0 48.216996672402274 -5.231692260504872)"><text x="6.1898193359375" y="0" font-family="Virgil, Segoe UI Emoji" font-size="12.135227007829291px" fill="#ffffff" text-anchor="middle" style="white-space: pre;" direction="ltr" dominant-baseline="text-before-edge">no</text></g><g mask="url(#mask-ddph76KjEj-ae6enVeYQL)" stroke-linecap="round"><g transform="translate(832.7959842698324 440.62845631615676) rotate(0 -108.66875043897062 56.62277841295395)"><path d="M0 0 C0.08 41.92, 0.16 83.84, 0.21 112.88 M0 0 C0.04 23.75, 0.09 47.49, 0.21 112.88 M0.21 112.88 C-65.58 112.99, -131.36 113.1, -217.55 113.25 M0.21 112.88 C-56.46 112.98, -113.13 113.07, -217.55 113.25" stroke="#ffffff" stroke-width="1" fill="none"></path></g></g><mask id="mask-ddph76KjEj-ae6enVeYQL"><rect x="0" y="0" fill="#fff" width="1150.5598059720073" height="653.8740131420647"></rect><rect x="826.8193253460122" y="545.9245383389059" fill="#000" width="12.379638671875" height="15.169033759786615" opacity="1"></rect></mask><g transform="translate(826.8193253460122 545.924538338906) rotate(0 -102.69209151514997 -48.67330360979531)"><text x="6.1898193359375" y="0" font-family="Virgil, Segoe UI Emoji" font-size="12.135227007829291px" fill="#ffffff" text-anchor="middle" style="white-space: pre;" direction="ltr" dominant-baseline="text-before-edge">no</text></g><g mask="url(#mask-W7xPpLNTo4_rVQyh-uFEM)" stroke-linecap="round"><g transform="translate(166.78887023312154 905.5265712341694) rotate(0 51.0923375608063 21.622615310481592)"><path d="M0 0 C-0.42 13.33, -0.83 26.67, -1.35 43.25 M0 0 C-0.45 14.59, -0.91 29.19, -1.35 43.25 M-1.35 43.25 C27.49 42.97, 56.33 42.7, 103.53 42.25 M-1.35 43.25 C27.5 42.97, 56.35 42.7, 103.53 42.25" stroke="#ffffff" stroke-width="1" fill="none"></path></g></g><mask id="mask-W7xPpLNTo4_rVQyh-uFEM"><rect x="0" y="0" fill="#fff" width="371.66642458111335" height="1048.7718018551327"></rect><rect x="159.25261128399507" y="941.1872849752392" fill="#000" width="12.379638671875" height="15.169033759786615" opacity="1"></rect></mask><g transform="translate(159.25261128399507 941.1872849752394) rotate(0 58.62859650993323 -14.03809843058832)"><text x="6.1898193359375" y="0" font-family="Virgil, Segoe UI Emoji" font-size="12.135227007829291px" fill="#ffffff" text-anchor="middle" style="white-space: pre;" direction="ltr" dominant-baseline="text-before-edge">no</text></g><g mask="url(#mask-NGqULzwTwaUOn0R4nNA3q)" stroke-linecap="round"><g transform="translate(677.3945172961589 680.6931680193786) rotate(0 -218.05250597652912 133.56692482848172)"><path d="M0 0 C-0.24 106.22, -0.48 212.44, -0.6 266.76 M0 0 C-0.2 89.44, -0.4 178.87, -0.6 266.76 M-0.6 266.76 C-126.28 266.87, -251.95 266.97, -436.11 267.13 M-0.6 266.76 C-152.14 266.89, -303.67 267.02, -436.11 267.13" stroke="#ffffff" stroke-width="1" fill="none"></path></g></g><mask id="mask-NGqULzwTwaUOn0R4nNA3q"><rect x="0" y="0" fill="#fff" width="1213.499529249217" height="1047.8270176763422"></rect><rect x="670.6010559737861" y="939.8650927397379" fill="#000" width="12.379638671875" height="15.169033759786615" opacity="1"></rect></mask><g transform="translate(670.6010559737861 939.8650927397377) rotate(0 -211.2590446541558 -125.60499989187753)"><text x="6.1898193359375" y="0" font-family="Virgil, Segoe UI Emoji" font-size="12.135227007829291px" fill="#ffffff" text-anchor="middle" style="white-space: pre;" direction="ltr" dominant-baseline="text-before-edge">no</text></g><g stroke-linecap="round"><g transform="translate(287.7945161372295 948.0455353087328) rotate(0 -0.000010664386081771227 18.870331958124893)"><path d="M0 0 C0 14.16, 0 28.32, 0 37.74 M0 0 C0 10.32, 0 20.64, 0 37.74" stroke="#ffffff" stroke-width="1" fill="none"></path></g><g transform="translate(287.7945161372295 948.0455353087328) rotate(0 -0.000010664386081771227 18.870331958124893)"><path d="M0 37.74 L-6.34 24.15 L6.34 24.15 L0 37.74" stroke="none" stroke-width="0" fill="#ffffff" fill-rule="evenodd"></path><path d="M0 37.74 C-2.38 32.64, -4.76 27.54, -6.34 24.15 M0 37.74 C-1.73 34.02, -3.47 30.3, -6.34 24.15 M-6.34 24.15 C-1.61 24.15, 3.13 24.15, 6.34 24.15 M-6.34 24.15 C-2.81 24.15, 0.72 24.15, 6.34 24.15 M6.34 24.15 C4.84 27.37, 3.33 30.6, 0 37.74 M6.34 24.15 C4.44 28.22, 2.54 32.3, 0 37.74 M0 37.74 C0 37.74, 0 37.74, 0 37.74 M0 37.74 C0 37.74, 0 37.74, 0 37.74" stroke="#ffffff" stroke-width="1" fill="none"></path></g></g><mask></mask><g stroke-linecap="round"><g transform="translate(676.5604642014073 554.348558167234) rotate(0 0.3051879039053347 20.752701792846494)"><path d="M0 0 C0.22 14.86, 0.44 29.72, 0.61 41.51 M0 0 C0.15 9.95, 0.29 19.9, 0.61 41.51" stroke="#ffffff" stroke-width="1" fill="none"></path></g><g transform="translate(676.5604642014073 554.348558167234) rotate(0 0.3051879039053347 20.752701792846494)"><path d="M0.61 41.51 L-5.93 28.01 L6.75 27.82 L0.61 41.51" stroke="none" stroke-width="0" fill="#ffffff" fill-rule="evenodd"></path><path d="M0.61 41.51 C-1.73 36.67, -4.07 31.84, -5.93 28.01 M0.61 41.51 C-0.96 38.27, -2.52 35.03, -5.93 28.01 M-5.93 28.01 C-0.97 27.93, 3.98 27.86, 6.75 27.82 M-5.93 28.01 C-2.86 27.96, 0.21 27.92, 6.75 27.82 M6.75 27.82 C5.23 31.2, 3.72 34.58, 0.61 41.51 M6.75 27.82 C4.75 32.28, 2.75 36.74, 0.61 41.51 M0.61 41.51 C0.61 41.51, 0.61 41.51, 0.61 41.51 M0.61 41.51 C0.61 41.51, 0.61 41.51, 0.61 41.51" stroke="#ffffff" stroke-width="1" fill="none"></path></g></g><mask></mask><g stroke-linecap="round"><g transform="translate(391.4480253804445 637.3859205746985) rotate(0 44.653541670326376 -180.62841935664295)"><path d="M0 0 C-0.02 -127.27, -0.05 -254.55, -0.06 -360.13 M0 0 C-0.02 -135.45, -0.05 -270.9, -0.06 -360.13 M-0.06 -360.13 C26.53 -360.47, 53.12 -360.8, 89.37 -361.26 M-0.06 -360.13 C19.24 -360.37, 38.55 -360.62, 89.37 -361.26" stroke="#ffffff" stroke-width="1" fill="none"></path></g><g transform="translate(391.4480253804445 637.3859205746985) rotate(0 44.653541670326376 -180.62841935664295)"><path d="M89.37 -361.26 L75.86 -354.75 L75.7 -367.42 L89.37 -361.26" stroke="none" stroke-width="0" fill="#ffffff" fill-rule="evenodd"></path><path d="M89.37 -361.26 C84.6 -358.96, 79.82 -356.66, 75.86 -354.75 M89.37 -361.26 C84.29 -358.81, 79.21 -356.36, 75.86 -354.75 M75.86 -354.75 C75.81 -358.52, 75.76 -362.29, 75.7 -367.42 M75.86 -354.75 C75.82 -357.48, 75.79 -360.22, 75.7 -367.42 M75.7 -367.42 C79.56 -365.68, 83.43 -363.94, 89.37 -361.26 M75.7 -367.42 C80.14 -365.42, 84.59 -363.41, 89.37 -361.26 M89.37 -361.26 C89.37 -361.26, 89.37 -361.26, 89.37 -361.26 M89.37 -361.26 C89.37 -361.26, 89.37 -361.26, 89.37 -361.26" stroke="#ffffff" stroke-width="1" fill="none"></path></g></g><mask></mask><g stroke-linecap="round"><g transform="translate(627.339008987306 636.1375365153467) rotate(0 -117.7381693345269 0.8732222908508334)"><path d="M0 0 C-54.17 0.4, -108.35 0.8, -235.48 1.75 M0 0 C-54.61 0.41, -109.23 0.81, -235.48 1.75" stroke="#ffffff" stroke-width="1" fill="none"></path></g></g><mask></mask><g stroke-linecap="round" transform="translate(571.2861510662601 624.3170708432151) rotate(0 17.06516297975986 13)"><path d="M0 0 L34.13 0 L34.13 26 L0 26" stroke="none" stroke-width="0" fill="#050505"></path><path d="M0 0 C8.95 0, 17.91 0, 34.13 0 M0 0 C10.68 0, 21.35 0, 34.13 0 M34.13 0 C34.13 9.46, 34.13 18.92, 34.13 26 M34.13 0 C34.13 8.48, 34.13 16.96, 34.13 26 M34.13 26 C24.08 26, 14.02 26, 0 26 M34.13 26 C24.57 26, 15.01 26, 0 26 M0 26 C0 18.46, 0 10.92, 0 0 M0 26 C0 19.56, 0 13.13, 0 0" stroke="#050505" stroke-width="1" fill="none"></path></g><g transform="translate(578.8998675128164 629.7325539633218) rotate(0 9.451446533203125 7.584516879893329)"><text x="9.451446533203125" y="0" font-family="Virgil, Segoe UI Emoji" font-size="12.135227007829291px" fill="#ffffff" text-anchor="middle" style="white-space: pre;" direction="ltr" dominant-baseline="text-before-edge">yes</text></g></svg>
