<svg version="1.1" xmlns="http://www.w3.org/2000/svg" viewBox="0 0 594.2946957996128 96.75688627304618" width="594.2946957996128" height="96.75688627304618">
  <!-- svg-source:excalidraw -->

  <defs>
    <style class="style-fonts">
      @font-face {
        font-family: "Virgil";
        src: url("https://excalidraw.com/Virgil.woff2");
      }
      @font-face {
        font-family: "Cascadia";
        src: url("https://excalidraw.com/Cascadia.woff2");
      }
    </style>

  </defs>
  <rect x="0" y="0" width="594.2946957996128" height="96.75688627304618" fill="#050505"></rect><g stroke-linecap="round" transform="translate(10 12.63472823827965) rotate(0 80.39971891839764 37.061079017383264)"><path d="M18.53 0 M18.53 0 C47.78 0.9, 75.72 3.09, 142.27 0 M18.53 0 C47.09 1.39, 75.87 1.56, 142.27 0 M142.27 0 C154.92 0.97, 161.51 7.85, 160.8 18.53 M142.27 0 C153.37 -0.37, 160.56 6.21, 160.8 18.53 M160.8 18.53 C162.98 34.4, 161.85 46.31, 160.8 55.59 M160.8 18.53 C161.4 26.53, 161.8 34.25, 160.8 55.59 M160.8 55.59 C159.98 69.67, 155 74.07, 142.27 74.12 M160.8 55.59 C162.94 66.2, 154.6 74.29, 142.27 74.12 M142.27 74.12 C93.59 72.64, 43.69 72.96, 18.53 74.12 M142.27 74.12 C115.96 72.92, 87.92 73.85, 18.53 74.12 M18.53 74.12 C4.84 72.15, -1.91 69.04, 0 55.59 M18.53 74.12 C4.89 75.67, -1.69 68.69, 0 55.59 M0 55.59 C-1 45.39, -1.41 31.21, 0 18.53 M0 55.59 C-0.64 44.32, -0.26 33.34, 0 18.53 M0 18.53 C-1.36 6.27, 7.05 1.72, 18.53 0 M0 18.53 C0.76 5.79, 6.59 -2.1, 18.53 0" stroke="#f08c00" stroke-width="1" fill="none"></path></g><g transform="translate(31.297950424745522 40.430537501317104) rotate(0 59.101768493652344 9.265269754345816)"><text x="59.101768493652344" y="0" font-family="Virgil, Segoe UI Emoji" font-size="14.824431606953308px" fill="#f08c00" text-anchor="middle" style="white-space: pre;" direction="ltr" dominant-baseline="text-before-edge">JavaScript code</text></g><g stroke-opacity="0.7" fill-opacity="0.7" stroke-linecap="round" transform="translate(423.4952579628175 10) rotate(0 80.39971891839764 37.061079017383264)"><path d="M18.53 0 M18.53 0 C44.33 2.11, 69.14 -1.17, 142.27 0 M18.53 0 C44.09 0.13, 68.56 0.27, 142.27 0 M142.27 0 C155.34 1.68, 159.71 5.85, 160.8 18.53 M142.27 0 C154.38 0.03, 162.97 8.23, 160.8 18.53 M160.8 18.53 C161.86 29.27, 159.5 44.37, 160.8 55.59 M160.8 18.53 C161.64 29.17, 160.51 41.53, 160.8 55.59 M160.8 55.59 C161.18 67.89, 156.48 72.6, 142.27 74.12 M160.8 55.59 C160.78 68.11, 156.7 76.07, 142.27 74.12 M142.27 74.12 C113.6 73.73, 87.23 74.92, 18.53 74.12 M142.27 74.12 C109.32 73.33, 76.05 72.18, 18.53 74.12 M18.53 74.12 C4.27 75.22, -1.12 69.29, 0 55.59 M18.53 74.12 C4.48 74.87, 0.37 68.83, 0 55.59 M0 55.59 C-1.11 42.56, -0.04 30.8, 0 18.53 M0 55.59 C-0.09 40.45, -0.4 26.83, 0 18.53 M0 18.53 C0.87 7.9, 6.84 -0.34, 18.53 0 M0 18.53 C0.41 4.07, 7.51 1.51, 18.53 0" stroke="#1971c2" stroke-width="1" fill="none"></path></g><g stroke-opacity="0.7" fill-opacity="0.7" transform="translate(442.9564774305318 37.79580926303743) rotate(0 60.938499450683594 9.265269754345816)"><text x="60.938499450683594" y="0" font-family="Virgil, Segoe UI Emoji" font-size="14.824431606953308px" fill="#1971c2" text-anchor="middle" style="white-space: pre;" direction="ltr" dominant-baseline="text-before-edge">Native Module(s)</text></g><g stroke-opacity="0.7" fill-opacity="0.7" stroke-linecap="round" transform="translate(218.8053491493688 10.850481341524386) rotate(0 80.39971891839764 37.06107901738328)"><path d="M18.53 0 M18.53 0 C52.93 -2.53, 88.19 -0.82, 142.27 0 M18.53 0 C57.94 0.06, 97.4 0.41, 142.27 0 M142.27 0 C153.54 -0.32, 160.59 6.2, 160.8 18.53 M142.27 0 C156.79 2.06, 161.46 8.3, 160.8 18.53 M160.8 18.53 C159.29 33.47, 160.91 46.08, 160.8 55.59 M160.8 18.53 C160.66 30.24, 161.26 40.18, 160.8 55.59 M160.8 55.59 C162.66 66.43, 154.6 74.27, 142.27 74.12 M160.8 55.59 C162.88 69.89, 152.69 73.7, 142.27 74.12 M142.27 74.12 C106.22 75.11, 72.72 75.61, 18.53 74.12 M142.27 74.12 C114.03 73.34, 86.18 74.88, 18.53 74.12 M18.53 74.12 C5.05 75.47, -1.47 68.6, 0 55.59 M18.53 74.12 C6.55 75, 0.6 66.96, 0 55.59 M0 55.59 C0.04 41.04, 2.01 26.21, 0 18.53 M0 55.59 C-0.54 46.41, 0.57 38, 0 18.53 M0 18.53 C0.66 5.84, 6.53 -1.83, 18.53 0 M0 18.53 C1.33 7.69, 6.49 -1.39, 18.53 0" stroke="#099268" stroke-width="1" fill="none"></path></g><g stroke-opacity="0.7" fill-opacity="0.7" transform="translate(242.6510519544854 38.64629060456184) rotate(0 56.55401611328125 9.265269754345816)"><text x="56.55401611328125" y="0" font-family="Virgil, Segoe UI Emoji" font-size="14.824431606953308px" fill="#099268" text-anchor="middle" style="white-space: pre;" direction="ltr" dominant-baseline="text-before-edge">Node.js Runtime</text></g><g stroke-linecap="round"><g stroke-opacity="0.7" fill-opacity="0.7" transform="translate(169.6344019589501 52.2853453369751) rotate(0 23.740082929899472 -0.4421550375200951)"><path d="M0 0 C7.91 -0.15, 39.57 -0.74, 47.48 -0.88 M0 0 C7.91 -0.15, 39.57 -0.74, 47.48 -0.88" stroke="#ffffff" stroke-width="1" fill="none"></path></g><g stroke-opacity="0.7" fill-opacity="0.7" transform="translate(169.6344019589501 52.2853453369751) rotate(0 23.740082929899472 -0.4421550375200951)"><path d="M25.32 7.65 C34.06 4.29, 42.79 0.92, 47.48 -0.88 M25.32 7.65 C31.8 5.15, 38.29 2.66, 47.48 -0.88" stroke="#ffffff" stroke-width="1" fill="none"></path></g><g stroke-opacity="0.7" fill-opacity="0.7" transform="translate(169.6344019589501 52.2853453369751) rotate(0 23.740082929899472 -0.4421550375200951)"><path d="M25.02 -8.59 C33.87 -5.55, 42.73 -2.51, 47.48 -0.88 M25.02 -8.59 C31.59 -6.33, 38.16 -4.08, 47.48 -0.88" stroke="#ffffff" stroke-width="1" fill="none"></path></g></g><mask></mask><g stroke-linecap="round"><g stroke-opacity="0.7" fill-opacity="0.7" transform="translate(379.49716553785447 49.72964112441119) rotate(0 21.23527097185047 -0.6188970042303765)"><path d="M0 0 C7.08 -0.21, 35.39 -1.03, 42.47 -1.24 M0 0 C7.08 -0.21, 35.39 -1.03, 42.47 -1.24" stroke="#ffffff" stroke-width="1" fill="none"></path></g><g stroke-opacity="0.7" fill-opacity="0.7" transform="translate(379.49716553785447 49.72964112441119) rotate(0 21.23527097185047 -0.6188970042303765)"><path d="M22.73 6.61 C30.15 3.66, 37.58 0.71, 42.47 -1.24 M22.73 6.61 C28.74 4.22, 34.76 1.83, 42.47 -1.24" stroke="#ffffff" stroke-width="1" fill="none"></path></g><g stroke-opacity="0.7" fill-opacity="0.7" transform="translate(379.49716553785447 49.72964112441119) rotate(0 21.23527097185047 -0.6188970042303765)"><path d="M22.3 -7.92 C29.89 -5.41, 37.48 -2.89, 42.47 -1.24 M22.3 -7.92 C28.45 -5.88, 34.59 -3.85, 42.47 -1.24" stroke="#ffffff" stroke-width="1" fill="none"></path></g></g><mask></mask></svg>
