<svg version="1.1" xmlns="http://www.w3.org/2000/svg" viewBox="0 0 354.7269027125303 521.6796485410498" width="354.7269027125303" height="521.6796485410498">
  <!-- svg-source:excalidraw -->

  <defs>
    <style class="style-fonts">
      @font-face {
        font-family: "Virgil";
        src: url("https://excalidraw.com/Virgil.woff2");
      }
      @font-face {
        font-family: "Cascadia";
        src: url("https://excalidraw.com/Cascadia.woff2");
      }
    </style>

  </defs>
  <rect x="0" y="0" width="354.7269027125303" height="521.6796485410498" fill="#050505"></rect><g stroke-linecap="round" transform="translate(10 10) rotate(0 53.494742107510774 24.65895267958868)"><path d="M12.33 0 M12.33 0 C43.45 0, 74.57 0, 94.66 0 M12.33 0 C40.32 0, 68.31 0, 94.66 0 M94.66 0 C102.88 0, 106.99 4.11, 106.99 12.33 M94.66 0 C102.88 0, 106.99 4.11, 106.99 12.33 M106.99 12.33 C106.99 18.82, 106.99 25.31, 106.99 36.99 M106.99 12.33 C106.99 21.99, 106.99 31.64, 106.99 36.99 M106.99 36.99 C106.99 45.21, 102.88 49.32, 94.66 49.32 M106.99 36.99 C106.99 45.21, 102.88 49.32, 94.66 49.32 M94.66 49.32 C75.03 49.32, 55.39 49.32, 12.33 49.32 M94.66 49.32 C75.91 49.32, 57.17 49.32, 12.33 49.32 M12.33 49.32 C4.11 49.32, 0 45.21, 0 36.99 M12.33 49.32 C4.11 49.32, 0 45.21, 0 36.99 M0 36.99 C0 30.6, 0 24.2, 0 12.33 M0 36.99 C0 28.02, 0 19.04, 0 12.33 M0 12.33 C0 4.11, 4.11 0, 12.33 0 M0 12.33 C0 4.11, 4.11 0, 12.33 0" stroke="#f08c00" stroke-width="1" fill="none"></path></g><g transform="translate(24.15603513729593 28.49421450969146) rotate(0 39.338706970214844 6.164738169897163)"><text x="39.338706970214844" y="0" font-family="Virgil, Segoe UI Emoji" font-size="9.863581071835467px" fill="#f08c00" text-anchor="middle" style="white-space: pre;" direction="ltr" dominant-baseline="text-before-edge">JavaScript code</text></g><g stroke-opacity="0.7" fill-opacity="0.7" stroke-linecap="round" transform="translate(210.8281219493274 128.43554940182935) rotate(0 53.494742107510774 24.65895267958865)"><path d="M12.33 0 M12.33 0 C43.76 0, 75.19 0, 94.66 0 M12.33 0 C41.74 0, 71.15 0, 94.66 0 M94.66 0 C102.88 0, 106.99 4.11, 106.99 12.33 M94.66 0 C102.88 0, 106.99 4.11, 106.99 12.33 M106.99 12.33 C106.99 20.31, 106.99 28.3, 106.99 36.99 M106.99 12.33 C106.99 18.14, 106.99 23.95, 106.99 36.99 M106.99 36.99 C106.99 45.21, 102.88 49.32, 94.66 49.32 M106.99 36.99 C106.99 45.21, 102.88 49.32, 94.66 49.32 M94.66 49.32 C70.38 49.32, 46.1 49.32, 12.33 49.32 M94.66 49.32 C72.05 49.32, 49.44 49.32, 12.33 49.32 M12.33 49.32 C4.11 49.32, 0 45.21, 0 36.99 M12.33 49.32 C4.11 49.32, 0 45.21, 0 36.99 M0 36.99 C0 28.81, 0 20.62, 0 12.33 M0 36.99 C0 28.07, 0 19.16, 0 12.33 M0 12.33 C0 4.11, 4.11 0, 12.33 0 M0 12.33 C0 4.11, 4.11 0, 12.33 0" stroke="#1971c2" stroke-width="1" fill="none"></path></g><g stroke-opacity="0.7" fill-opacity="0.7" transform="translate(230.15043974043192 146.92976391152092) rotate(0 34.17242431640625 6.164738169897191)"><text x="34.17242431640625" y="0" font-family="Virgil, Segoe UI Emoji" font-size="9.863581071835467px" fill="#1971c2" text-anchor="middle" style="white-space: pre;" direction="ltr" dominant-baseline="text-before-edge">Native Module</text></g><g stroke-opacity="0.7" fill-opacity="0.7" stroke-linecap="round" transform="translate(13.49269325206933 130.85623459361466) rotate(0 53.494742107510774 24.65895267958865)"><path d="M12.33 0 M12.33 0 C37.66 0, 62.99 0, 94.66 0 M12.33 0 C43.26 0, 74.18 0, 94.66 0 M94.66 0 C102.88 0, 106.99 4.11, 106.99 12.33 M94.66 0 C102.88 0, 106.99 4.11, 106.99 12.33 M106.99 12.33 C106.99 18.18, 106.99 24.03, 106.99 36.99 M106.99 12.33 C106.99 19.39, 106.99 26.45, 106.99 36.99 M106.99 36.99 C106.99 45.21, 102.88 49.32, 94.66 49.32 M106.99 36.99 C106.99 45.21, 102.88 49.32, 94.66 49.32 M94.66 49.32 C77.21 49.32, 59.77 49.32, 12.33 49.32 M94.66 49.32 C70.27 49.32, 45.88 49.32, 12.33 49.32 M12.33 49.32 C4.11 49.32, 0 45.21, 0 36.99 M12.33 49.32 C4.11 49.32, 0 45.21, 0 36.99 M0 36.99 C0 28.64, 0 20.28, 0 12.33 M0 36.99 C0 29.8, 0 22.62, 0 12.33 M0 12.33 C0 4.11, 4.11 0, 12.33 0 M0 12.33 C0 4.11, 4.11 0, 12.33 0" stroke="#099268" stroke-width="1" fill="none"></path></g><g stroke-opacity="0.7" fill-opacity="0.7" transform="translate(29.34453680000979 149.35044910330612) rotate(0 37.64289855957031 6.164738169897191)"><text x="37.64289855957031" y="0" font-family="Virgil, Segoe UI Emoji" font-size="9.863581071835467px" fill="#099268" text-anchor="middle" style="white-space: pre;" direction="ltr" dominant-baseline="text-before-edge">Node.js Runtime</text></g><g mask="url(#mask-Te2Ky7EhanVE-dFm8jh4a)" stroke-linecap="round"><g stroke-opacity="0.7" fill-opacity="0.7" transform="translate(64.61886169507989 59.19624267391271) rotate(0 0.28622142277799867 35.442999039286065)"><path d="M0 0 C0.04 4.55, 0.16 15.47, 0.26 27.28 C0.36 39.1, 0.52 63.62, 0.57 70.89 M0 0 C0.04 4.55, 0.16 15.47, 0.26 27.28 C0.36 39.1, 0.52 63.62, 0.57 70.89" stroke="#ffffff" stroke-width="1" fill="none"></path></g><g stroke-opacity="0.7" fill-opacity="0.7" transform="translate(64.61886169507989 59.19624267391271) rotate(0 0.28622142277799867 35.442999039286065)"><path d="M-7.03 50.45 C-4.32 57.72, -1.62 65, 0.57 70.89 M-7.03 50.45 C-4.56 57.08, -2.1 63.71, 0.57 70.89" stroke="#ffffff" stroke-width="1" fill="none"></path></g><g stroke-opacity="0.7" fill-opacity="0.7" transform="translate(64.61886169507989 59.19624267391271) rotate(0 0.28622142277799867 35.442999039286065)"><path d="M7.89 50.35 C5.28 57.66, 2.68 64.97, 0.57 70.89 M7.89 50.35 C5.51 57.01, 3.14 63.67, 0.57 70.89" stroke="#ffffff" stroke-width="1" fill="none"></path></g></g><mask id="mask-Te2Ky7EhanVE-dFm8jh4a"><rect x="0" y="0" fill="#fff" width="165.19130454063594" height="230.08224075248484"></rect><rect x="32.41484703121523" y="79.82586591117604" fill="#000" width="64.92866516113281" height="13.307196300476054" opacity="1"></rect></mask><g transform="translate(32.41484703121523 79.82586591117604) rotate(0 32.49023608664265 14.813375802022733)"><text x="32.464332580566406" y="0" font-family="Virgil, Segoe UI Emoji" font-size="10.645757040380843px" fill="#ffffff" text-anchor="middle" style="white-space: pre;" direction="ltr" dominant-baseline="text-before-edge">Function call</text></g><g stroke-linecap="round"><g stroke-opacity="0.7" fill-opacity="0.7" transform="translate(123.25506939626848 154.62098709368513) rotate(0 43.45384636901781 -0.3177215644112721)"><path d="M0 0 C14.48 -0.11, 72.42 -0.53, 86.91 -0.64 M0 0 C14.48 -0.11, 72.42 -0.53, 86.91 -0.64" stroke="#ffffff" stroke-width="1" fill="none"></path></g><g stroke-opacity="0.7" fill-opacity="0.7" transform="translate(123.25506939626848 154.62098709368513) rotate(0 43.45384636901781 -0.3177215644112721)"><path d="M28.12 -10.47 C19.37 -7.21, 10.62 -3.95, 0 0 M28.12 -10.47 C19.06 -7.1, 10.01 -3.73, 0 0" stroke="#ffffff" stroke-width="1" fill="none"></path></g><g stroke-opacity="0.7" fill-opacity="0.7" transform="translate(123.25506939626848 154.62098709368513) rotate(0 43.45384636901781 -0.3177215644112721)"><path d="M28.27 10.05 C19.47 6.93, 10.67 3.8, 0 0 M28.27 10.05 C19.16 6.82, 10.06 3.58, 0 0" stroke="#ffffff" stroke-width="1" fill="none"></path></g><g stroke-opacity="0.7" fill-opacity="0.7" transform="translate(123.25506939626848 154.62098709368513) rotate(0 43.45384636901781 -0.3177215644112721)"><path d="M58.79 9.83 C67.54 6.57, 76.29 3.32, 86.91 -0.64 M58.79 9.83 C67.85 6.46, 76.9 3.09, 86.91 -0.64" stroke="#ffffff" stroke-width="1" fill="none"></path></g><g stroke-opacity="0.7" fill-opacity="0.7" transform="translate(123.25506939626848 154.62098709368513) rotate(0 43.45384636901781 -0.3177215644112721)"><path d="M58.64 -10.69 C67.44 -7.56, 76.24 -4.43, 86.91 -0.64 M58.64 -10.69 C67.75 -7.45, 76.85 -4.21, 86.91 -0.64" stroke="#ffffff" stroke-width="1" fill="none"></path></g></g><mask></mask><g stroke-opacity="0.7" fill-opacity="0.7" stroke-linecap="round" transform="translate(211.78804058652076 223.33336177542913) rotate(0 53.494742107510774 24.65895267958865)"><path d="M12.33 0 M12.33 0 C32.69 0, 53.06 0, 94.66 0 M12.33 0 C32.43 0, 52.53 0, 94.66 0 M94.66 0 C102.88 0, 106.99 4.11, 106.99 12.33 M94.66 0 C102.88 0, 106.99 4.11, 106.99 12.33 M106.99 12.33 C106.99 18.41, 106.99 24.49, 106.99 36.99 M106.99 12.33 C106.99 18.47, 106.99 24.6, 106.99 36.99 M106.99 36.99 C106.99 45.21, 102.88 49.32, 94.66 49.32 M106.99 36.99 C106.99 45.21, 102.88 49.32, 94.66 49.32 M94.66 49.32 C62.03 49.32, 29.4 49.32, 12.33 49.32 M94.66 49.32 C63.21 49.32, 31.77 49.32, 12.33 49.32 M12.33 49.32 C4.11 49.32, 0 45.21, 0 36.99 M12.33 49.32 C4.11 49.32, 0 45.21, 0 36.99 M0 36.99 C0 29.75, 0 22.51, 0 12.33 M0 36.99 C0 28.24, 0 19.5, 0 12.33 M0 12.33 C0 4.11, 4.11 0, 12.33 0 M0 12.33 C0 4.11, 4.11 0, 12.33 0" stroke="#1971c2" stroke-width="1" fill="none"></path></g><g stroke-opacity="0.7" fill-opacity="0.7" transform="translate(216.96223368280107 235.6628381152234) rotate(0 48.32054901123047 12.329476339794326)"><text x="48.32054901123047" y="0" font-family="Virgil, Segoe UI Emoji" font-size="9.863581071835467px" fill="#1971c2" text-anchor="middle" style="white-space: pre;" direction="ltr" dominant-baseline="text-before-edge">Compiled Code (C++,</text><text x="48.32054901123047" y="12.329476339794335" font-family="Virgil, Segoe UI Emoji" font-size="9.863581071835467px" fill="#1971c2" text-anchor="middle" style="white-space: pre;" direction="ltr" dominant-baseline="text-before-edge">Rust, etc)</text></g><g stroke-opacity="0.7" fill-opacity="0.7" stroke-linecap="round" transform="translate(12.658732855687958 221.85016655290292) rotate(0 53.09305583284049 24.473791251588352)"><path d="M12.24 0 M12.24 0 C31.62 0, 51 0, 93.95 0 M12.24 0 C35.63 0, 59.02 0, 93.95 0 M93.95 0 C102.11 0, 106.19 4.08, 106.19 12.24 M93.95 0 C102.11 0, 106.19 4.08, 106.19 12.24 M106.19 12.24 C106.19 17.42, 106.19 22.61, 106.19 36.71 M106.19 12.24 C106.19 19.49, 106.19 26.74, 106.19 36.71 M106.19 36.71 C106.19 44.87, 102.11 48.95, 93.95 48.95 M106.19 36.71 C106.19 44.87, 102.11 48.95, 93.95 48.95 M93.95 48.95 C66.27 48.95, 38.6 48.95, 12.24 48.95 M93.95 48.95 C70.14 48.95, 46.34 48.95, 12.24 48.95 M12.24 48.95 C4.08 48.95, 0 44.87, 0 36.71 M12.24 48.95 C4.08 48.95, 0 44.87, 0 36.71 M0 36.71 C0 27.58, 0 18.44, 0 12.24 M0 36.71 C0 28.05, 0 19.4, 0 12.24 M0 12.24 C0 4.08, 4.08 0, 12.24 0 M0 12.24 C0 4.08, 4.08 0, 12.24 0" stroke="#099268" stroke-width="1" fill="none"></path></g><g stroke-opacity="0.7" fill-opacity="0.7" transform="translate(24.90217931352845 240.20550999159423) rotate(0 40.849609375 6.118447812897102)"><text x="40.849609375" y="0" font-family="Virgil, Segoe UI Emoji" font-size="9.789516500635338px" fill="#099268" text-anchor="middle" style="white-space: pre;" direction="ltr" dominant-baseline="text-before-edge">JS Modules/Code</text></g><g stroke-linecap="round" transform="translate(15.58798622072527 464.7743247878956) rotate(0 164.56945824590252 23.45266187657711)"><path d="M11.73 0 M11.73 0 C94.84 0, 177.95 0, 317.41 0 M11.73 0 C131.4 0, 251.07 0, 317.41 0 M317.41 0 C325.23 0, 329.14 3.91, 329.14 11.73 M317.41 0 C325.23 0, 329.14 3.91, 329.14 11.73 M329.14 11.73 C329.14 20.13, 329.14 28.54, 329.14 35.18 M329.14 11.73 C329.14 20.16, 329.14 28.59, 329.14 35.18 M329.14 35.18 C329.14 43, 325.23 46.91, 317.41 46.91 M329.14 35.18 C329.14 43, 325.23 46.91, 317.41 46.91 M317.41 46.91 C202.64 46.91, 87.87 46.91, 11.73 46.91 M317.41 46.91 C209.61 46.91, 101.81 46.91, 11.73 46.91 M11.73 46.91 C3.91 46.91, 0 43, 0 35.18 M11.73 46.91 C3.91 46.91, 0 43, 0 35.18 M0 35.18 C0 26.36, 0 17.54, 0 11.73 M0 35.18 C0 28, 0 20.83, 0 11.73 M0 11.73 C0 3.91, 3.91 0, 11.73 0 M0 11.73 C0 3.91, 3.91 0, 11.73 0" stroke="#ffffff" stroke-width="1" fill="none"></path></g><g transform="translate(131.4954647913346 481.5733885142349) rotate(0 48.66197967529297 6.653598150238054)"><text x="48.66197967529297" y="0" font-family="Virgil, Segoe UI Emoji" font-size="10.645757040380843px" fill="#ffffff" text-anchor="middle" style="white-space: pre;" direction="ltr" dominant-baseline="text-before-edge">System-Level APIs</text></g><g stroke-opacity="0.7" fill-opacity="0.7" stroke-linecap="round" transform="translate(12.161055544374449 270.2146420969392) rotate(0 53.09305583284049 24.473791251588352)"><path d="M12.24 0 M12.24 0 C39.59 0, 66.94 0, 93.95 0 M12.24 0 C31.72 0, 51.21 0, 93.95 0 M93.95 0 C102.11 0, 106.19 4.08, 106.19 12.24 M93.95 0 C102.11 0, 106.19 4.08, 106.19 12.24 M106.19 12.24 C106.19 21.54, 106.19 30.84, 106.19 36.71 M106.19 12.24 C106.19 18.58, 106.19 24.93, 106.19 36.71 M106.19 36.71 C106.19 44.87, 102.11 48.95, 93.95 48.95 M106.19 36.71 C106.19 44.87, 102.11 48.95, 93.95 48.95 M93.95 48.95 C65.54 48.95, 37.13 48.95, 12.24 48.95 M93.95 48.95 C65.5 48.95, 37.06 48.95, 12.24 48.95 M12.24 48.95 C4.08 48.95, 0 44.87, 0 36.71 M12.24 48.95 C4.08 48.95, 0 44.87, 0 36.71 M0 36.71 C0 28.86, 0 21.01, 0 12.24 M0 36.71 C0 28.34, 0 19.96, 0 12.24 M0 12.24 C0 4.08, 4.08 0, 12.24 0 M0 12.24 C0 4.08, 4.08 0, 12.24 0" stroke="#099268" stroke-width="1" fill="none"></path></g><g stroke-opacity="0.7" fill-opacity="0.7" transform="translate(40.15645512721494 288.5699855356305) rotate(0 25.09765625 6.118447812897102)"><text x="25.09765625" y="0" font-family="Virgil, Segoe UI Emoji" font-size="9.789516500635338px" fill="#099268" text-anchor="middle" style="white-space: pre;" direction="ltr" dominant-baseline="text-before-edge">Event loop</text></g><g stroke-opacity="0.7" fill-opacity="0.7" stroke-linecap="round" transform="translate(12.39601042617187 318.9256454492207) rotate(0 53.09305583284049 24.473791251588352)"><path d="M12.24 0 M12.24 0 C29.55 0, 46.87 0, 93.95 0 M12.24 0 C36.44 0, 60.65 0, 93.95 0 M93.95 0 C102.11 0, 106.19 4.08, 106.19 12.24 M93.95 0 C102.11 0, 106.19 4.08, 106.19 12.24 M106.19 12.24 C106.19 20.53, 106.19 28.82, 106.19 36.71 M106.19 12.24 C106.19 19.37, 106.19 26.5, 106.19 36.71 M106.19 36.71 C106.19 44.87, 102.11 48.95, 93.95 48.95 M106.19 36.71 C106.19 44.87, 102.11 48.95, 93.95 48.95 M93.95 48.95 C63.45 48.95, 32.95 48.95, 12.24 48.95 M93.95 48.95 C65.05 48.95, 36.14 48.95, 12.24 48.95 M12.24 48.95 C4.08 48.95, 0 44.87, 0 36.71 M12.24 48.95 C4.08 48.95, 0 44.87, 0 36.71 M0 36.71 C0 30.18, 0 23.65, 0 12.24 M0 36.71 C0 30.22, 0 23.72, 0 12.24 M0 12.24 C0 4.08, 4.08 0, 12.24 0 M0 12.24 C0 4.08, 4.08 0, 12.24 0" stroke="#099268" stroke-width="1" fill="none"></path></g><g stroke-opacity="0.7" fill-opacity="0.7" transform="translate(42.74980844651236 337.28098888791203) rotate(0 22.7392578125 6.118447812897102)"><text x="22.7392578125" y="0" font-family="Virgil, Segoe UI Emoji" font-size="9.789516500635338px" fill="#099268" text-anchor="middle" style="white-space: pre;" direction="ltr" dominant-baseline="text-before-edge">V8 Engine</text></g><g stroke-opacity="0.7" fill-opacity="0.7" stroke-linecap="round" transform="translate(12.004442855896741 367.6366488015018) rotate(0 53.09305583284049 24.473791251588352)"><path d="M12.24 0 M12.24 0 C32.61 0, 52.98 0, 93.95 0 M12.24 0 C33.97 0, 55.69 0, 93.95 0 M93.95 0 C102.11 0, 106.19 4.08, 106.19 12.24 M93.95 0 C102.11 0, 106.19 4.08, 106.19 12.24 M106.19 12.24 C106.19 19.23, 106.19 26.23, 106.19 36.71 M106.19 12.24 C106.19 17.53, 106.19 22.83, 106.19 36.71 M106.19 36.71 C106.19 44.87, 102.11 48.95, 93.95 48.95 M106.19 36.71 C106.19 44.87, 102.11 48.95, 93.95 48.95 M93.95 48.95 C69.2 48.95, 44.45 48.95, 12.24 48.95 M93.95 48.95 C73.11 48.95, 52.27 48.95, 12.24 48.95 M12.24 48.95 C4.08 48.95, 0 44.87, 0 36.71 M12.24 48.95 C4.08 48.95, 0 44.87, 0 36.71 M0 36.71 C0 27.15, 0 17.59, 0 12.24 M0 36.71 C0 28.72, 0 20.73, 0 12.24 M0 12.24 C0 4.08, 4.08 0, 12.24 0 M0 12.24 C0 4.08, 4.08 0, 12.24 0" stroke="#099268" stroke-width="1" fill="none"></path></g><g stroke-opacity="0.7" fill-opacity="0.7" transform="translate(17.797694001237232 385.9919922401931) rotate(0 47.2998046875 6.118447812897102)"><text x="47.2998046875" y="0" font-family="Virgil, Segoe UI Emoji" font-size="9.789516500635338px" fill="#099268" text-anchor="middle" style="white-space: pre;" direction="ltr" dominant-baseline="text-before-edge">Garbage Collection </text></g><g stroke-linecap="round"><g transform="translate(63.875173597030425 418.52042636722024) rotate(0 0.1944086819050881 23.134989125073048)"><path d="M0 0 C0.13 15.67, 0.26 31.34, 0.39 46.27 M0 0 C0.14 16.09, 0.27 32.17, 0.39 46.27" stroke="#ffffff" stroke-width="1" fill="none"></path></g><g transform="translate(63.875173597030425 418.52042636722024) rotate(0 0.1944086819050881 23.134989125073048)"><path d="M8.1 21.67 C5.35 14.33, 2.61 6.99, 0 0 M8.1 21.67 C5.28 14.14, 2.47 6.6, 0 0" stroke="#ffffff" stroke-width="1" fill="none"></path></g><g transform="translate(63.875173597030425 418.52042636722024) rotate(0 0.1944086819050881 23.134989125073048)"><path d="M-7.73 21.81 C-5.11 14.42, -2.49 7.03, 0 0 M-7.73 21.81 C-5.04 14.23, -2.36 6.64, 0 0" stroke="#ffffff" stroke-width="1" fill="none"></path></g><g transform="translate(63.875173597030425 418.52042636722024) rotate(0 0.1944086819050881 23.134989125073048)"><path d="M-7.71 24.6 C-4.96 31.94, -2.22 39.28, 0.39 46.27 M-7.71 24.6 C-4.89 32.13, -2.08 39.67, 0.39 46.27" stroke="#ffffff" stroke-width="1" fill="none"></path></g><g transform="translate(63.875173597030425 418.52042636722024) rotate(0 0.1944086819050881 23.134989125073048)"><path d="M8.12 24.46 C5.5 31.85, 2.88 39.24, 0.39 46.27 M8.12 24.46 C5.43 32.04, 2.74 39.63, 0.39 46.27" stroke="#ffffff" stroke-width="1" fill="none"></path></g></g><mask></mask><g stroke-linecap="round"><g transform="translate(265.93226893395786 274.22810220397184) rotate(0 1.5552991201045643 95.0672953218147)"><path d="M0 0 C1.07 65.36, 2.14 130.71, 3.11 190.13 M0 0 C0.92 56, 1.83 112, 3.11 190.13" stroke="#ffffff" stroke-width="1" fill="none"></path></g><g transform="translate(265.93226893395786 274.22810220397184) rotate(0 1.5552991201045643 95.0672953218147)"><path d="M10.72 28.02 C7.04 18.39, 3.35 8.76, 0 0 M10.72 28.02 C7.56 19.77, 4.41 11.51, 0 0" stroke="#ffffff" stroke-width="1" fill="none"></path></g><g transform="translate(265.93226893395786 274.22810220397184) rotate(0 1.5552991201045643 95.0672953218147)"><path d="M-9.8 28.35 C-6.43 18.61, -3.06 8.86, 0 0 M-9.8 28.35 C-6.91 20, -4.03 11.65, 0 0" stroke="#ffffff" stroke-width="1" fill="none"></path></g><g transform="translate(265.93226893395786 274.22810220397184) rotate(0 1.5552991201045643 95.0672953218147)"><path d="M-7.61 162.12 C-3.92 171.75, -0.24 181.38, 3.11 190.13 M-7.61 162.12 C-4.45 170.37, -1.29 178.62, 3.11 190.13" stroke="#ffffff" stroke-width="1" fill="none"></path></g><g transform="translate(265.93226893395786 274.22810220397184) rotate(0 1.5552991201045643 95.0672953218147)"><path d="M12.91 161.78 C9.54 171.53, 6.17 181.27, 3.11 190.13 M12.91 161.78 C10.02 170.13, 7.14 178.48, 3.11 190.13" stroke="#ffffff" stroke-width="1" fill="none"></path></g></g><mask></mask><g stroke-linecap="round"><g transform="translate(65.62534060293592 178.7411554728992) rotate(0 0.1944086819050881 23.134989125073048)"><path d="M0 0 C0.14 16.73, 0.28 33.46, 0.39 46.27 M0 0 C0.15 17.92, 0.3 35.85, 0.39 46.27" stroke="#ffffff" stroke-width="1" fill="none"></path></g><g transform="translate(65.62534060293592 178.7411554728992) rotate(0 0.1944086819050881 23.134989125073048)"><path d="M-7.71 24.6 C-4.78 32.43, -1.85 40.27, 0.39 46.27 M-7.71 24.6 C-4.57 32.99, -1.44 41.39, 0.39 46.27" stroke="#ffffff" stroke-width="1" fill="none"></path></g><g transform="translate(65.62534060293592 178.7411554728992) rotate(0 0.1944086819050881 23.134989125073048)"><path d="M8.12 24.46 C5.32 32.35, 2.53 40.23, 0.39 46.27 M8.12 24.46 C5.12 32.91, 2.13 41.36, 0.39 46.27" stroke="#ffffff" stroke-width="1" fill="none"></path></g></g><mask></mask><g stroke-linecap="round"><g transform="translate(264.9020311496847 177.23630777838628) rotate(0 0.17876557687259265 21.686760367528507)"><path d="M0.7 1.85 C-1.11 14.98, 0.43 35.15, -0.34 43.21 M0.7 -0.49 C-0.2 16.11, 0.36 33.28, 0.05 43.86" stroke="#ffffff" stroke-width="1" fill="none"></path></g><g transform="translate(264.9020311496847 177.23630777838628) rotate(0 0.17876557687259265 21.686760367528507)"><path d="M-6.65 24.76 C-5.66 29.07, -1.47 40.47, -0.58 42.64 M-6.65 22.42 C-4.74 30.06, -1.46 38.23, -0.19 43.28" stroke="#ffffff" stroke-width="1" fill="none"></path></g><g transform="translate(264.9020311496847 177.23630777838628) rotate(0 0.17876557687259265 21.686760367528507)"><path d="M8.55 24.91 C3.87 29.26, 2.38 40.61, -0.58 42.64 M8.55 22.57 C4.64 30.05, 2.09 38.16, -0.19 43.28" stroke="#ffffff" stroke-width="1" fill="none"></path></g></g><mask></mask></svg>
